<svg width="22" height="22" viewBox="0 0 22 22" fill="none" xmlns="http://www.w3.org/2000/svg">
<path d="M18.5625 4.125V8.25C18.5625 8.43234 18.4901 8.6072 18.3611 8.73614C18.2322 8.86507 18.0573 8.9375 17.875 8.9375C17.6927 8.9375 17.5178 8.86507 17.3889 8.73614C17.2599 8.6072 17.1875 8.43234 17.1875 8.25V5.78445L13.5489 9.42391C13.4199 9.55291 13.2449 9.62538 13.0625 9.62538C12.8801 9.62538 12.7051 9.55291 12.5761 9.42391C12.4471 9.2949 12.3746 9.11994 12.3746 8.9375C12.3746 8.75506 12.4471 8.5801 12.5761 8.45109L16.2155 4.8125H13.75C13.5677 4.8125 13.3928 4.74007 13.2639 4.61114C13.1349 4.4822 13.0625 4.30734 13.0625 4.125C13.0625 3.94266 13.1349 3.7678 13.2639 3.63886C13.3928 3.50993 13.5677 3.4375 13.75 3.4375H17.875C18.0573 3.4375 18.2322 3.50993 18.3611 3.63886C18.4901 3.7678 18.5625 3.94266 18.5625 4.125ZM8.45109 12.5761L4.8125 16.2155V13.75C4.8125 13.5677 4.74007 13.3928 4.61114 13.2639C4.4822 13.1349 4.30734 13.0625 4.125 13.0625C3.94266 13.0625 3.7678 13.1349 3.63886 13.2639C3.50993 13.3928 3.4375 13.5677 3.4375 13.75V17.875C3.4375 18.0573 3.50993 18.2322 3.63886 18.3611C3.7678 18.4901 3.94266 18.5625 4.125 18.5625H8.25C8.43234 18.5625 8.6072 18.4901 8.73614 18.3611C8.86507 18.2322 8.9375 18.0573 8.9375 17.875C8.9375 17.6927 8.86507 17.5178 8.73614 17.3889C8.6072 17.2599 8.43234 17.1875 8.25 17.1875H5.78445L9.42391 13.5489C9.55291 13.4199 9.62538 13.2449 9.62538 13.0625C9.62538 12.8801 9.55291 12.7051 9.42391 12.5761C9.2949 12.4471 9.11994 12.3746 8.9375 12.3746C8.75506 12.3746 8.5801 12.4471 8.45109 12.5761ZM17.875 13.0625C17.6927 13.0625 17.5178 13.1349 17.3889 13.2639C17.2599 13.3928 17.1875 13.5677 17.1875 13.75V16.2155L13.5489 12.5761C13.4199 12.4471 13.2449 12.3746 13.0625 12.3746C12.8801 12.3746 12.7051 12.4471 12.5761 12.5761C12.4471 12.7051 12.3746 12.8801 12.3746 13.0625C12.3746 13.2449 12.4471 13.4199 12.5761 13.5489L16.2155 17.1875H13.75C13.5677 17.1875 13.3928 17.2599 13.2639 17.3889C13.1349 17.5178 13.0625 17.6927 13.0625 17.875C13.0625 18.0573 13.1349 18.2322 13.2639 18.3611C13.3928 18.4901 13.5677 18.5625 13.75 18.5625H17.875C18.0573 18.5625 18.2322 18.4901 18.3611 18.3611C18.4901 18.2322 18.5625 18.0573 18.5625 17.875V13.75C18.5625 13.5677 18.4901 13.3928 18.3611 13.2639C18.2322 13.1349 18.0573 13.0625 17.875 13.0625ZM5.78445 4.8125H8.25C8.43234 4.8125 8.6072 4.74007 8.73614 4.61114C8.86507 4.4822 8.9375 4.30734 8.9375 4.125C8.9375 3.94266 8.86507 3.7678 8.73614 3.63886C8.6072 3.50993 8.43234 3.4375 8.25 3.4375H4.125C3.94266 3.4375 3.7678 3.50993 3.63886 3.63886C3.50993 3.7678 3.4375 3.94266 3.4375 4.125V8.25C3.4375 8.43234 3.50993 8.6072 3.63886 8.73614C3.7678 8.86507 3.94266 8.9375 4.125 8.9375C4.30734 8.9375 4.4822 8.86507 4.61114 8.73614C4.74007 8.6072 4.8125 8.43234 4.8125 8.25V5.78445L8.45109 9.42391C8.5801 9.55291 8.75506 9.62538 8.9375 9.62538C9.11994 9.62538 9.2949 9.55291 9.42391 9.42391C9.55291 9.2949 9.62538 9.11994 9.62538 8.9375C9.62538 8.75506 9.55291 8.5801 9.42391 8.45109L5.78445 4.8125Z" fill="#00214C"/>
</svg>
