<svg width="17" height="14" viewBox="0 0 17 14" fill="none" xmlns="http://www.w3.org/2000/svg">
<g id="Group 427319230">
<path id="Vector" d="M5.11009e-06 7C5.09386e-06 6.81436 0.072986 6.63632 0.20289 6.50506C0.332794 6.37379 0.508979 6.30004 0.692691 6.30004L14.2598 6.30004L9.20752 1.19558C9.14317 1.13054 9.09212 1.05334 9.05729 0.968365C9.02246 0.883396 9.00453 0.792325 9.00453 0.700353C9.00453 0.608382 9.02246 0.517311 9.05729 0.43234C9.09212 0.34737 9.14317 0.270164 9.20752 0.205131C9.27188 0.140097 9.34829 0.0885111 9.43237 0.0533148C9.51646 0.0181195 9.60658 2.52092e-06 9.6976 2.51296e-06C9.78862 2.505e-06 9.87874 0.0181194 9.96283 0.0533148C10.0469 0.0885111 10.1233 0.140097 10.1877 0.205131L16.4218 6.50478C16.4862 6.56979 16.5373 6.64698 16.5722 6.73196C16.6071 6.81693 16.625 6.90802 16.625 7C16.625 7.09199 16.6071 7.18307 16.5722 7.26804C16.5373 7.35302 16.4862 7.43022 16.4218 7.49522L10.1877 13.7949C10.0577 13.9262 9.88141 14 9.6976 14C9.51379 14 9.3375 13.9262 9.20753 13.7949C9.07755 13.6635 9.00453 13.4854 9.00453 13.2997C9.00453 13.1139 9.07755 12.9358 9.20753 12.8044L14.2598 7.69996L0.692691 7.69996C0.508979 7.69996 0.332794 7.62622 0.20289 7.49495C0.072986 7.36368 5.12632e-06 7.18564 5.11009e-06 7Z" fill="#00214C"/>
</g>
</svg>
