<svg width="14" height="15" viewBox="0 0 14 15" fill="none" xmlns="http://www.w3.org/2000/svg">
<g id="ArrowDownLeft">
<path id="Vector" d="M10.9643 4.0161L5.08594 9.8961H9.1875C9.36155 9.8961 9.52847 9.96524 9.65154 10.0883C9.77461 10.2114 9.84375 10.3783 9.84375 10.5523C9.84375 10.7264 9.77461 10.8933 9.65154 11.0164C9.52847 11.1395 9.36155 11.2086 9.1875 11.2086H3.5C3.32595 11.2086 3.15903 11.1395 3.03596 11.0164C2.91289 10.8933 2.84375 10.7264 2.84375 10.5523V4.86485C2.84375 4.6908 2.91289 4.52388 3.03596 4.40081C3.15903 4.27774 3.32595 4.2086 3.5 4.2086C3.67405 4.2086 3.84097 4.27774 3.96404 4.40081C4.08711 4.52388 4.15625 4.6908 4.15625 4.86485V8.96641L10.0357 3.08805C10.0967 3.02701 10.1692 2.97859 10.249 2.94555C10.3287 2.91251 10.4142 2.89551 10.5005 2.89551C10.5869 2.89551 10.6724 2.91251 10.7521 2.94555C10.8319 2.97859 10.9043 3.02701 10.9654 3.08805C11.0264 3.1491 11.0749 3.22157 11.1079 3.30132C11.1409 3.38108 11.1579 3.46657 11.1579 3.5529C11.1579 3.63923 11.1409 3.72471 11.1079 3.80447C11.0749 3.88423 11.0264 3.9567 10.9654 4.01774L10.9643 4.0161Z" fill="#FF3A3A"/>
</g>
</svg>
