<svg width="14" height="15" viewBox="0 0 14 15" fill="none" xmlns="http://www.w3.org/2000/svg">
<g id="ArrowDownLeft">
<path id="Vector" d="M3.0357 10.2488L8.91406 4.36879L4.8125 4.36879C4.63845 4.36879 4.47153 4.29965 4.34846 4.17658C4.22539 4.05351 4.15625 3.88659 4.15625 3.71254C4.15625 3.53849 4.22539 3.37158 4.34846 3.2485C4.47153 3.12543 4.63845 3.05629 4.8125 3.05629L10.5 3.05629C10.674 3.05629 10.841 3.12543 10.964 3.24851C11.0871 3.37158 11.1563 3.5385 11.1563 3.71254L11.1563 9.40004C11.1563 9.57409 11.0871 9.74101 10.964 9.86408C10.841 9.98715 10.674 10.0563 10.5 10.0563C10.326 10.0563 10.159 9.98715 10.036 9.86408C9.91289 9.74101 9.84375 9.57409 9.84375 9.40004L9.84375 5.29848L3.9643 11.1768C3.90325 11.2379 3.83078 11.2863 3.75102 11.3193C3.67127 11.3524 3.58578 11.3694 3.49945 11.3694C3.41312 11.3694 3.32764 11.3524 3.24788 11.3193C3.16812 11.2863 3.09565 11.2379 3.03461 11.1768C2.97357 11.1158 2.92514 11.0433 2.89211 10.9636C2.85907 10.8838 2.84206 10.7983 2.84206 10.712C2.84206 10.6257 2.85907 10.5402 2.89211 10.4604C2.92514 10.3807 2.97357 10.3082 3.03461 10.2472L3.0357 10.2488Z" fill="#00C48B"/>
</g>
</svg>
