<svg width="75" height="57" viewBox="0 0 75 57" fill="none" xmlns="http://www.w3.org/2000/svg">
<path id="&#226;&#128;&#156;" d="M29.0545 0.980957L36.0837 11.0563C26.9456 18.3199 21.0879 23.4747 18.7448 26.755C18.2762 27.4579 17.8076 28.1609 17.5733 28.8638H18.5106C25.7742 28.8638 31.3975 34.9558 31.3975 42.4537C31.3975 50.6546 24.6026 56.981 16.1674 56.981C7.02934 56.981 0 49.2487 0 39.642C0 26.2864 9.60682 13.3994 29.0545 0.980957ZM56.2071 28.8638H57.1444C64.408 28.8638 70.0313 34.9558 70.0313 42.4537C70.0313 50.6546 63.2364 56.981 54.8012 56.981C45.6632 56.981 38.6338 49.2487 38.6338 39.642C38.6338 26.2864 48.2407 13.3994 67.6883 0.980957L74.7175 11.0563C65.5795 18.3199 59.7217 23.4747 57.3786 26.755C56.91 27.4579 56.4414 28.1609 56.2071 28.8638Z" fill="#ADB4CF"/>
</svg>
