<svg width="21" height="21" viewBox="0 0 21 21" fill="none" xmlns="http://www.w3.org/2000/svg">
<g id="AsteriskSimple">
<path id="Vector" d="M17.124 8.58047L11.6451 10.768L15.51 15.7375C15.5617 15.8022 15.6001 15.8765 15.6229 15.9561C15.6457 16.0357 15.6524 16.119 15.6427 16.2013C15.633 16.2835 15.6071 16.363 15.5664 16.4352C15.5257 16.5073 15.471 16.5706 15.4057 16.6214C15.3403 16.6723 15.2654 16.7096 15.1855 16.7313C15.1056 16.7529 15.0221 16.7585 14.94 16.7476C14.8579 16.7368 14.7788 16.7097 14.7073 16.668C14.6357 16.6263 14.5732 16.5708 14.5233 16.5047L10.6397 11.5156L6.75842 16.5086C6.6558 16.6368 6.50682 16.7195 6.34372 16.7387C6.18061 16.758 6.01649 16.7123 5.88683 16.6115C5.75717 16.5107 5.67241 16.3629 5.65086 16.2C5.62932 16.0372 5.67273 15.8725 5.7717 15.7414L9.63655 10.7719L4.1553 8.58047C4.00135 8.51831 3.8784 8.39754 3.81349 8.24472C3.74858 8.09191 3.74704 7.91957 3.8092 7.76562C3.87136 7.61167 3.99213 7.48872 4.14495 7.42382C4.29776 7.35891 4.4701 7.35737 4.62405 7.41953L10.0147 9.57656V3.625C10.0147 3.45924 10.0805 3.30027 10.1977 3.18306C10.3149 3.06585 10.4739 3 10.6397 3C10.8054 3 10.9644 3.06585 11.0816 3.18306C11.1988 3.30027 11.2647 3.45924 11.2647 3.625V9.57656L16.6553 7.41953C16.7315 7.38875 16.8131 7.37329 16.8953 7.37402C16.9775 7.37476 17.0587 7.39168 17.1344 7.42382C17.2101 7.45596 17.2787 7.50268 17.3363 7.56133C17.3939 7.61998 17.4394 7.6894 17.4701 7.76562C17.5009 7.84185 17.5164 7.9234 17.5156 8.0056C17.5149 8.08781 17.498 8.16906 17.4659 8.24472C17.4337 8.32039 17.387 8.38898 17.3283 8.44659C17.2697 8.5042 17.2003 8.54969 17.124 8.58047Z" fill="#00214C"/>
</g>
</svg>
