<svg width="21" height="21" viewBox="0 0 21 21" fill="none" xmlns="http://www.w3.org/2000/svg">
<path d="M2.375 8.62498H4.25V13.625H3C2.83424 13.625 2.67527 13.6908 2.55806 13.808C2.44085 13.9252 2.375 14.0842 2.375 14.25C2.375 14.4157 2.44085 14.5747 2.55806 14.6919C2.67527 14.8091 2.83424 14.875 3 14.875H18C18.1658 14.875 18.3247 14.8091 18.4419 14.6919C18.5592 14.5747 18.625 14.4157 18.625 14.25C18.625 14.0842 18.5592 13.9252 18.4419 13.808C18.3247 13.6908 18.1658 13.625 18 13.625H16.75V8.62498H18.625C18.761 8.62484 18.8932 8.58035 19.0016 8.49827C19.1101 8.41618 19.1887 8.30097 19.2258 8.17012C19.2628 8.03927 19.2561 7.89992 19.2068 7.7732C19.1574 7.64648 19.0681 7.53931 18.9523 7.46795L10.8273 2.46795C10.7289 2.40741 10.6156 2.37537 10.5 2.37537C10.3844 2.37537 10.2711 2.40741 10.1727 2.46795L2.04766 7.46795C1.9319 7.53931 1.84257 7.64648 1.79323 7.7732C1.74388 7.89992 1.73722 8.03927 1.77424 8.17012C1.81126 8.30097 1.88994 8.41618 1.99836 8.49827C2.10678 8.58035 2.23901 8.62484 2.375 8.62498ZM5.5 8.62498H8V13.625H5.5V8.62498ZM11.75 8.62498V13.625H9.25V8.62498H11.75ZM15.5 13.625H13V8.62498H15.5V13.625ZM10.5 3.73357L16.4172 7.37498H4.58281L10.5 3.73357ZM19.875 16.75C19.875 16.9157 19.8092 17.0747 19.6919 17.1919C19.5747 17.3091 19.4158 17.375 19.25 17.375H1.75C1.58424 17.375 1.42527 17.3091 1.30806 17.1919C1.19085 17.0747 1.125 16.9157 1.125 16.75C1.125 16.5842 1.19085 16.4252 1.30806 16.308C1.42527 16.1908 1.58424 16.125 1.75 16.125H19.25C19.4158 16.125 19.5747 16.1908 19.6919 16.308C19.8092 16.4252 19.875 16.5842 19.875 16.75Z" fill="#00214C"/>
</svg>
