<svg width="25" height="25" viewBox="0 0 25 25" fill="none" xmlns="http://www.w3.org/2000/svg">
<path d="M21.959 9.86472H19.709C19.709 9.66581 19.63 9.47504 19.4893 9.33439C19.3487 9.19374 19.1579 9.11472 18.959 9.11472H12.959C12.7601 9.11472 12.5693 9.19374 12.4287 9.33439C12.288 9.47504 12.209 9.66581 12.209 9.86472H6.20898V5.73972C6.20898 5.44135 6.32751 5.1552 6.53849 4.94422C6.74947 4.73325 7.03562 4.61472 7.33398 4.61472C7.59766 4.61364 7.85391 4.70195 8.06095 4.86522C8.26798 5.0285 8.41358 5.25712 8.47398 5.51378C8.51518 5.70706 8.631 5.87627 8.79627 5.98463C8.96154 6.09299 9.1629 6.13174 9.35658 6.09246C9.55026 6.05318 9.72061 5.93905 9.8306 5.77486C9.94059 5.61068 9.98134 5.40972 9.94398 5.21566C9.81664 4.61885 9.48761 4.08414 9.01224 3.70149C8.53688 3.31884 7.94421 3.11163 7.33398 3.11472C6.63779 3.11472 5.97011 3.39128 5.47783 3.88356C4.98555 4.37585 4.70898 5.04353 4.70898 5.73972V9.86472H2.45898C2.06116 9.86472 1.67963 10.0228 1.39832 10.3041C1.11702 10.5854 0.958984 10.9669 0.958984 11.3647V14.3647C0.960473 15.7566 1.51407 17.0911 2.49832 18.0754C3.48256 19.0596 4.81705 19.6132 6.20898 19.6147V21.1147C6.20898 21.3136 6.288 21.5044 6.42865 21.6451C6.56931 21.7857 6.76007 21.8647 6.95898 21.8647C7.1579 21.8647 7.34866 21.7857 7.48931 21.6451C7.62997 21.5044 7.70898 21.3136 7.70898 21.1147V19.6147H16.709V21.1147C16.709 21.3136 16.788 21.5044 16.9287 21.6451C17.0693 21.7857 17.2601 21.8647 17.459 21.8647C17.6579 21.8647 17.8487 21.7857 17.9893 21.6451C18.13 21.5044 18.209 21.3136 18.209 21.1147V19.6147C19.6009 19.6132 20.9354 19.0596 21.9197 18.0754C22.9039 17.0911 23.4575 15.7566 23.459 14.3647V11.3647C23.459 10.9669 23.3009 10.5854 23.0196 10.3041C22.7383 10.0228 22.3568 9.86472 21.959 9.86472ZM18.209 10.6147V13.6147H13.709V10.6147H18.209ZM21.959 14.3647C21.959 14.8572 21.862 15.3448 21.6735 15.7998C21.4851 16.2548 21.2089 16.6682 20.8606 17.0164C20.5124 17.3646 20.099 17.6408 19.644 17.8293C19.1891 18.0177 18.7014 18.1147 18.209 18.1147H6.20898C5.21442 18.1147 4.2606 17.7196 3.55733 17.0164C2.85407 16.3131 2.45898 15.3593 2.45898 14.3647V11.3647H12.209V14.3647C12.209 14.5636 12.288 14.7544 12.4287 14.8951C12.5693 15.0357 12.7601 15.1147 12.959 15.1147H18.959C19.1579 15.1147 19.3487 15.0357 19.4893 14.8951C19.63 14.7544 19.709 14.5636 19.709 14.3647V11.3647H21.959V14.3647Z" fill="white"/>
</svg>
