<svg width="31" height="31" viewBox="0 0 31 31" fill="none" xmlns="http://www.w3.org/2000/svg">
<path d="M27.9568 11.8093H25.1425C25.1425 11.5605 25.0436 11.3219 24.8677 11.1459C24.6918 10.97 24.4532 10.8712 24.2044 10.8712H16.6994C16.4506 10.8712 16.212 10.97 16.036 11.1459C15.8601 11.3219 15.7613 11.5605 15.7613 11.8093H8.2563V6.64961C8.2563 6.2764 8.40456 5.91848 8.66846 5.65458C8.93235 5.39068 9.29028 5.24243 9.66348 5.24243C9.99329 5.24108 10.3138 5.35153 10.5728 5.55577C10.8318 5.76 11.0139 6.04596 11.0894 6.367C11.141 6.60876 11.2858 6.82041 11.4926 6.95595C11.6993 7.09149 11.9511 7.13996 12.1934 7.09083C12.4357 7.0417 12.6487 6.89893 12.7863 6.69357C12.9239 6.4882 12.9749 6.23683 12.9281 5.9941C12.7689 5.2476 12.3573 4.57876 11.7627 4.10013C11.1681 3.62151 10.4268 3.36232 9.66348 3.36618C8.79267 3.36618 7.95751 3.71212 7.34175 4.32788C6.72599 4.94364 6.38006 5.77879 6.38006 6.64961V11.8093H3.5657C3.06809 11.8093 2.59086 12.007 2.23899 12.3588C1.88713 12.7107 1.68945 13.1879 1.68945 13.6855V17.438C1.69132 19.1791 2.38378 20.8483 3.6149 22.0794C4.84601 23.3105 6.51524 24.003 8.2563 24.0049V25.8811C8.2563 26.1299 8.35514 26.3685 8.53107 26.5444C8.707 26.7204 8.94562 26.8192 9.19442 26.8192C9.44323 26.8192 9.68184 26.7204 9.85777 26.5444C10.0337 26.3685 10.1325 26.1299 10.1325 25.8811V24.0049H21.39V25.8811C21.39 26.1299 21.4888 26.3685 21.6648 26.5444C21.8407 26.7204 22.0793 26.8192 22.3281 26.8192C22.5769 26.8192 22.8155 26.7204 22.9915 26.5444C23.1674 26.3685 23.2662 26.1299 23.2662 25.8811V24.0049C25.0073 24.003 26.6765 23.3105 27.9076 22.0794C29.1388 20.8483 29.8312 19.1791 29.8331 17.438V13.6855C29.8331 13.1879 29.6354 12.7107 29.2836 12.3588C28.9317 12.007 28.4545 11.8093 27.9568 11.8093ZM23.2662 12.7474V16.4999H17.6375V12.7474H23.2662ZM27.9568 17.438C27.9568 18.054 27.8355 18.6639 27.5998 19.233C27.3641 19.8021 27.0186 20.3192 26.583 20.7548C26.1474 21.1903 25.6303 21.5358 25.0613 21.7716C24.4922 22.0073 23.8822 22.1286 23.2662 22.1286H8.2563C7.01228 22.1286 5.8192 21.6344 4.93954 20.7548C4.05988 19.8751 3.5657 18.682 3.5657 17.438V13.6855H15.7613V17.438C15.7613 17.6868 15.8601 17.9254 16.036 18.1014C16.212 18.2773 16.4506 18.3761 16.6994 18.3761H24.2044C24.4532 18.3761 24.6918 18.2773 24.8677 18.1014C25.0436 17.9254 25.1425 17.6868 25.1425 17.438V13.6855H27.9568V17.438Z" fill="#00214C"/>
</svg>
