<svg width="25" height="25" viewBox="0 0 25 25" fill="none" xmlns="http://www.w3.org/2000/svg">
<g id="Bed">
<path id="Vector" d="M20.4648 7.61475H3.21484V5.36475C3.21484 5.16583 3.13583 4.97507 2.99517 4.83442C2.85452 4.69376 2.66376 4.61475 2.46484 4.61475C2.26593 4.61475 2.07517 4.69376 1.93451 4.83442C1.79386 4.97507 1.71484 5.16583 1.71484 5.36475V20.3647C1.71484 20.5637 1.79386 20.7544 1.93451 20.8951C2.07517 21.0357 2.26593 21.1147 2.46484 21.1147C2.66376 21.1147 2.85452 21.0357 2.99517 20.8951C3.13583 20.7544 3.21484 20.5637 3.21484 20.3647V17.3647H22.7148V20.3647C22.7148 20.5637 22.7939 20.7544 22.9345 20.8951C23.0752 21.0357 23.2659 21.1147 23.4648 21.1147C23.6638 21.1147 23.8545 21.0357 23.9952 20.8951C24.1358 20.7544 24.2148 20.5637 24.2148 20.3647V11.3647C24.2148 10.3702 23.8198 9.41636 23.1165 8.7131C22.4132 8.00983 21.4594 7.61475 20.4648 7.61475ZM3.21484 9.11475H9.96484V15.8647H3.21484V9.11475ZM11.4648 15.8647V9.11475H20.4648C21.0616 9.11475 21.6339 9.3518 22.0558 9.77376C22.4778 10.1957 22.7148 10.768 22.7148 11.3647V15.8647H11.4648Z" fill="white"/>
</g>
</svg>
