<svg width="31" height="31" viewBox="0 0 31 31" fill="none" xmlns="http://www.w3.org/2000/svg">
<path d="M24.8515 8.99487H3.27468V6.18051C3.27468 5.9317 3.17584 5.69309 2.99991 5.51716C2.82398 5.34122 2.58536 5.24239 2.33656 5.24239C2.08775 5.24239 1.84914 5.34122 1.67321 5.51716C1.49727 5.69309 1.39844 5.9317 1.39844 6.18051V24.9429C1.39844 25.1917 1.49727 25.4304 1.67321 25.6063C1.84914 25.7822 2.08775 25.8811 2.33656 25.8811C2.58536 25.8811 2.82398 25.7822 2.99991 25.6063C3.17584 25.4304 3.27468 25.1917 3.27468 24.9429V21.1904H27.6658V24.9429C27.6658 25.1917 27.7647 25.4304 27.9406 25.6063C28.1165 25.7822 28.3551 25.8811 28.604 25.8811C28.8528 25.8811 29.0914 25.7822 29.2673 25.6063C29.4432 25.4304 29.5421 25.1917 29.5421 24.9429V13.6855C29.5421 12.4415 29.0479 11.2484 28.1682 10.3687C27.2886 9.48906 26.0955 8.99487 24.8515 8.99487ZM3.27468 10.8711H11.7178V19.3142H3.27468V10.8711ZM13.594 19.3142V10.8711H24.8515C25.5979 10.8711 26.3137 11.1676 26.8415 11.6954C27.3693 12.2232 27.6658 12.9391 27.6658 13.6855V19.3142H13.594Z" fill="#00214C"/>
</svg>
