<svg width="32" height="33" viewBox="0 0 32 33" fill="none" xmlns="http://www.w3.org/2000/svg">
<path d="M30 26.9732H28V12.9732C28 12.4428 27.7893 11.9341 27.4142 11.559C27.0391 11.1839 26.5304 10.9732 26 10.9732H18V4.97322C18.0002 4.61105 17.9021 4.25562 17.7161 3.94485C17.5301 3.63408 17.2633 3.37965 16.944 3.20871C16.6247 3.03777 16.265 2.95674 15.9032 2.97427C15.5415 2.99179 15.1913 3.10722 14.89 3.30822L4.89 9.97322C4.61567 10.1562 4.39086 10.4043 4.23558 10.6952C4.0803 10.9861 3.99937 11.3109 4 11.6407V26.9732H2C1.73478 26.9732 1.48043 27.0786 1.29289 27.2661C1.10536 27.4537 1 27.708 1 27.9732C1 28.2384 1.10536 28.4928 1.29289 28.6803C1.48043 28.8679 1.73478 28.9732 2 28.9732H30C30.2652 28.9732 30.5196 28.8679 30.7071 28.6803C30.8946 28.4928 31 28.2384 31 27.9732C31 27.708 30.8946 27.4537 30.7071 27.2661C30.5196 27.0786 30.2652 26.9732 30 26.9732ZM26 12.9732V26.9732H18V12.9732H26ZM6 11.6407L16 4.97322V26.9732H6V11.6407ZM14 14.9732V16.9732C14 17.2384 13.8946 17.4928 13.7071 17.6803C13.5196 17.8679 13.2652 17.9732 13 17.9732C12.7348 17.9732 12.4804 17.8679 12.2929 17.6803C12.1054 17.4928 12 17.2384 12 16.9732V14.9732C12 14.708 12.1054 14.4537 12.2929 14.2661C12.4804 14.0786 12.7348 13.9732 13 13.9732C13.2652 13.9732 13.5196 14.0786 13.7071 14.2661C13.8946 14.4537 14 14.708 14 14.9732ZM10 14.9732V16.9732C10 17.2384 9.89464 17.4928 9.70711 17.6803C9.51957 17.8679 9.26522 17.9732 9 17.9732C8.73478 17.9732 8.48043 17.8679 8.29289 17.6803C8.10536 17.4928 8 17.2384 8 16.9732V14.9732C8 14.708 8.10536 14.4537 8.29289 14.2661C8.48043 14.0786 8.73478 13.9732 9 13.9732C9.26522 13.9732 9.51957 14.0786 9.70711 14.2661C9.89464 14.4537 10 14.708 10 14.9732ZM10 21.9732V23.9732C10 24.2384 9.89464 24.4928 9.70711 24.6803C9.51957 24.8679 9.26522 24.9732 9 24.9732C8.73478 24.9732 8.48043 24.8679 8.29289 24.6803C8.10536 24.4928 8 24.2384 8 23.9732V21.9732C8 21.708 8.10536 21.4537 8.29289 21.2661C8.48043 21.0786 8.73478 20.9732 9 20.9732C9.26522 20.9732 9.51957 21.0786 9.70711 21.2661C9.89464 21.4537 10 21.708 10 21.9732ZM14 21.9732V23.9732C14 24.2384 13.8946 24.4928 13.7071 24.6803C13.5196 24.8679 13.2652 24.9732 13 24.9732C12.7348 24.9732 12.4804 24.8679 12.2929 24.6803C12.1054 24.4928 12 24.2384 12 23.9732V21.9732C12 21.708 12.1054 21.4537 12.2929 21.2661C12.4804 21.0786 12.7348 20.9732 13 20.9732C13.2652 20.9732 13.5196 21.0786 13.7071 21.2661C13.8946 21.4537 14 21.708 14 21.9732Z" fill="white"/>
</svg>
