<svg width="25" height="25" viewBox="0 0 25 25" fill="none" xmlns="http://www.w3.org/2000/svg">
<path d="M23 20.3125H21.5V9.8125C21.5 9.41467 21.342 9.03314 21.0607 8.75184C20.7794 8.47053 20.3978 8.3125 20 8.3125H14V3.8125C14.0002 3.54087 13.9266 3.27429 13.7871 3.04122C13.6476 2.80814 13.4474 2.61732 13.208 2.48911C12.9685 2.36091 12.6987 2.30014 12.4274 2.31328C12.1561 2.32643 11.8935 2.41299 11.6675 2.56375L4.1675 7.5625C3.96176 7.69977 3.79315 7.88578 3.67669 8.10398C3.56023 8.32218 3.49953 8.56579 3.5 8.81312V20.3125H2C1.80109 20.3125 1.61032 20.3915 1.46967 20.5322C1.32902 20.6728 1.25 20.8636 1.25 21.0625C1.25 21.2614 1.32902 21.4522 1.46967 21.5928C1.61032 21.7335 1.80109 21.8125 2 21.8125H23C23.1989 21.8125 23.3897 21.7335 23.5303 21.5928C23.671 21.4522 23.75 21.2614 23.75 21.0625C23.75 20.8636 23.671 20.6728 23.5303 20.5322C23.3897 20.3915 23.1989 20.3125 23 20.3125ZM20 9.8125V20.3125H14V9.8125H20ZM5 8.81312L12.5 3.8125V20.3125H5V8.81312ZM11 11.3125V12.8125C11 13.0114 10.921 13.2022 10.7803 13.3428C10.6397 13.4835 10.4489 13.5625 10.25 13.5625C10.0511 13.5625 9.86032 13.4835 9.71967 13.3428C9.57902 13.2022 9.5 13.0114 9.5 12.8125V11.3125C9.5 11.1136 9.57902 10.9228 9.71967 10.7822C9.86032 10.6415 10.0511 10.5625 10.25 10.5625C10.4489 10.5625 10.6397 10.6415 10.7803 10.7822C10.921 10.9228 11 11.1136 11 11.3125ZM8 11.3125V12.8125C8 13.0114 7.92098 13.2022 7.78033 13.3428C7.63968 13.4835 7.44891 13.5625 7.25 13.5625C7.05109 13.5625 6.86032 13.4835 6.71967 13.3428C6.57902 13.2022 6.5 13.0114 6.5 12.8125V11.3125C6.5 11.1136 6.57902 10.9228 6.71967 10.7822C6.86032 10.6415 7.05109 10.5625 7.25 10.5625C7.44891 10.5625 7.63968 10.6415 7.78033 10.7822C7.92098 10.9228 8 11.1136 8 11.3125ZM8 16.5625V18.0625C8 18.2614 7.92098 18.4522 7.78033 18.5928C7.63968 18.7335 7.44891 18.8125 7.25 18.8125C7.05109 18.8125 6.86032 18.7335 6.71967 18.5928C6.57902 18.4522 6.5 18.2614 6.5 18.0625V16.5625C6.5 16.3636 6.57902 16.1728 6.71967 16.0322C6.86032 15.8915 7.05109 15.8125 7.25 15.8125C7.44891 15.8125 7.63968 15.8915 7.78033 16.0322C7.92098 16.1728 8 16.3636 8 16.5625ZM11 16.5625V18.0625C11 18.2614 10.921 18.4522 10.7803 18.5928C10.6397 18.7335 10.4489 18.8125 10.25 18.8125C10.0511 18.8125 9.86032 18.7335 9.71967 18.5928C9.57902 18.4522 9.5 18.2614 9.5 18.0625V16.5625C9.5 16.3636 9.57902 16.1728 9.71967 16.0322C9.86032 15.8915 10.0511 15.8125 10.25 15.8125C10.4489 15.8125 10.6397 15.8915 10.7803 16.0322C10.921 16.1728 11 16.3636 11 16.5625Z" fill="#00214C"/>
</svg>
