<svg width="21" height="21" viewBox="0 0 21 21" fill="none" xmlns="http://www.w3.org/2000/svg">
<path d="M16.75 3H14.875V2.375C14.875 2.20924 14.8092 2.05027 14.6919 1.93306C14.5747 1.81585 14.4158 1.75 14.25 1.75C14.0842 1.75 13.9253 1.81585 13.8081 1.93306C13.6908 2.05027 13.625 2.20924 13.625 2.375V3H7.375V2.375C7.375 2.20924 7.30915 2.05027 7.19194 1.93306C7.07473 1.81585 6.91576 1.75 6.75 1.75C6.58424 1.75 6.42527 1.81585 6.30806 1.93306C6.19085 2.05027 6.125 2.20924 6.125 2.375V3H4.25C3.91848 3 3.60054 3.1317 3.36612 3.36612C3.1317 3.60054 3 3.91848 3 4.25V16.75C3 17.0815 3.1317 17.3995 3.36612 17.6339C3.60054 17.8683 3.91848 18 4.25 18H16.75C17.0815 18 17.3995 17.8683 17.6339 17.6339C17.8683 17.3995 18 17.0815 18 16.75V4.25C18 3.91848 17.8683 3.60054 17.6339 3.36612C17.3995 3.1317 17.0815 3 16.75 3ZM6.125 4.25V4.875C6.125 5.04076 6.19085 5.19973 6.30806 5.31694C6.42527 5.43415 6.58424 5.5 6.75 5.5C6.91576 5.5 7.07473 5.43415 7.19194 5.31694C7.30915 5.19973 7.375 5.04076 7.375 4.875V4.25H13.625V4.875C13.625 5.04076 13.6908 5.19973 13.8081 5.31694C13.9253 5.43415 14.0842 5.5 14.25 5.5C14.4158 5.5 14.5747 5.43415 14.6919 5.31694C14.8092 5.19973 14.875 5.04076 14.875 4.875V4.25H16.75V6.75H4.25V4.25H6.125ZM16.75 16.75H4.25V8H16.75V16.75ZM9.25 9.875V14.875C9.25 15.0408 9.18415 15.1997 9.06694 15.3169C8.94973 15.4342 8.79076 15.5 8.625 15.5C8.45924 15.5 8.30027 15.4342 8.18306 15.3169C8.06585 15.1997 8 15.0408 8 14.875V10.8859L7.65469 11.0594C7.50633 11.1336 7.33459 11.1458 7.17723 11.0933C7.01988 11.0409 6.8898 10.928 6.81562 10.7797C6.74145 10.6313 6.72924 10.4596 6.78169 10.3022C6.83414 10.1449 6.94696 10.0148 7.09531 9.94062L8.34531 9.31562C8.44063 9.26793 8.54657 9.2454 8.65305 9.25018C8.75954 9.25497 8.86303 9.2869 8.95369 9.34296C9.04435 9.39902 9.11916 9.47733 9.17103 9.57045C9.22289 9.66357 9.25008 9.76841 9.25 9.875ZM13.8719 12.2539L12.375 14.25H13.625C13.7908 14.25 13.9497 14.3158 14.0669 14.4331C14.1842 14.5503 14.25 14.7092 14.25 14.875C14.25 15.0408 14.1842 15.1997 14.0669 15.3169C13.9497 15.4342 13.7908 15.5 13.625 15.5H11.125C11.0089 15.5 10.8952 15.4677 10.7964 15.4067C10.6977 15.3456 10.6179 15.2583 10.566 15.1545C10.5141 15.0507 10.4921 14.9345 10.5025 14.8189C10.5129 14.7033 10.5554 14.5929 10.625 14.5L12.8734 11.5023C12.9246 11.4343 12.9613 11.3564 12.9813 11.2737C13.0012 11.1909 13.0041 11.1049 12.9897 11.021C12.9752 10.9371 12.9438 10.857 12.8973 10.7856C12.8508 10.7143 12.7902 10.6532 12.7192 10.6062C12.6483 10.5591 12.5684 10.527 12.4846 10.5119C12.4008 10.4968 12.3148 10.499 12.2319 10.5183C12.149 10.5376 12.0709 10.5737 12.0024 10.6243C11.9339 10.6749 11.8764 10.7389 11.8336 10.8125C11.7938 10.8858 11.7397 10.9505 11.6744 11.0026C11.6092 11.0547 11.5343 11.0932 11.4539 11.1158C11.3736 11.1385 11.2895 11.1448 11.2067 11.1344C11.1239 11.124 11.044 11.0972 10.9717 11.0555C10.8995 11.0137 10.8363 10.9579 10.7859 10.8914C10.7356 10.8248 10.6991 10.7488 10.6785 10.6679C10.658 10.587 10.6539 10.5028 10.6664 10.4203C10.679 10.3378 10.7079 10.2586 10.7516 10.1875C10.958 9.83022 11.2766 9.55103 11.6578 9.3932C12.0391 9.23537 12.4618 9.20772 12.8603 9.31453C13.2589 9.42133 13.6111 9.65664 13.8624 9.98397C14.1136 10.3113 14.2499 10.7124 14.25 11.125C14.2513 11.5326 14.1184 11.9293 13.8719 12.2539Z" fill="#00214C"/>
</svg>
