<svg width="31" height="31" viewBox="0 0 31 31" fill="none" xmlns="http://www.w3.org/2000/svg">
<path d="M28.6957 13.6855H27.4293L24.1717 6.3564C24.0242 6.02481 23.7838 5.74308 23.4795 5.54536C23.1752 5.34763 22.8201 5.24239 22.4572 5.24239H8.66686C8.30397 5.24239 7.94887 5.34763 7.64458 5.54536C7.34029 5.74308 7.09987 6.02481 6.95245 6.3564L3.69482 13.6855H2.42836C2.17955 13.6855 1.94094 13.7843 1.765 13.9602C1.58907 14.1362 1.49023 14.3748 1.49023 14.6236C1.49023 14.8724 1.58907 15.111 1.765 15.2869C1.94094 15.4629 2.17955 15.5617 2.42836 15.5617H3.36648V24.9429C3.36648 25.4405 3.56415 25.9178 3.91602 26.2696C4.26788 26.6215 4.74511 26.8192 5.24272 26.8192H8.05708C8.55469 26.8192 9.03192 26.6215 9.38379 26.2696C9.73565 25.9178 9.93332 25.4405 9.93332 24.9429V23.0667H21.1908V24.9429C21.1908 25.4405 21.3885 25.9178 21.7403 26.2696C22.0922 26.6215 22.5694 26.8192 23.067 26.8192H25.8814C26.379 26.8192 26.8562 26.6215 27.2081 26.2696C27.56 25.9178 27.7576 25.4405 27.7576 24.9429V15.5617H28.6957C28.9446 15.5617 29.1832 15.4629 29.3591 15.2869C29.535 15.111 29.6339 14.8724 29.6339 14.6236C29.6339 14.3748 29.535 14.1362 29.3591 13.9602C29.1832 13.7843 28.9446 13.6855 28.6957 13.6855ZM8.66686 7.11863H22.4572L25.376 13.6855H5.74813L8.66686 7.11863ZM25.8814 24.9429H23.067V22.1286C23.067 21.8798 22.9682 21.6411 22.7923 21.4652C22.6163 21.2893 22.3777 21.1904 22.1289 21.1904H8.9952C8.7464 21.1904 8.50778 21.2893 8.33185 21.4652C8.15592 21.6411 8.05708 21.8798 8.05708 22.1286V24.9429H5.24272V15.5617H25.8814V24.9429Z" fill="#00214C"/>
</svg>
