<svg width="25" height="25" viewBox="0 0 25 25" fill="none" xmlns="http://www.w3.org/2000/svg">
<path d="M22.9551 11.3647H21.9426L19.3382 5.50537C19.2203 5.24027 19.0281 5.01504 18.7849 4.85696C18.5416 4.69889 18.2577 4.61475 17.9676 4.61475H6.94258C6.65246 4.61475 6.36857 4.69889 6.1253 4.85696C5.88202 5.01504 5.68981 5.24027 5.57195 5.50537L2.96758 11.3647H1.95508C1.75617 11.3647 1.5654 11.4438 1.42475 11.5844C1.2841 11.7251 1.20508 11.9158 1.20508 12.1147C1.20508 12.3137 1.2841 12.5044 1.42475 12.6451C1.5654 12.7857 1.75617 12.8647 1.95508 12.8647H2.70508V20.3647C2.70508 20.7626 2.86311 21.1441 3.14442 21.4254C3.42572 21.7067 3.80725 21.8647 4.20508 21.8647H6.45508C6.8529 21.8647 7.23443 21.7067 7.51574 21.4254C7.79704 21.1441 7.95508 20.7626 7.95508 20.3647V18.8647H16.9551V20.3647C16.9551 20.7626 17.1131 21.1441 17.3944 21.4254C17.6757 21.7067 18.0573 21.8647 18.4551 21.8647H20.7051C21.1029 21.8647 21.4844 21.7067 21.7657 21.4254C22.047 21.1441 22.2051 20.7626 22.2051 20.3647V12.8647H22.9551C23.154 12.8647 23.3448 12.7857 23.4854 12.6451C23.6261 12.5044 23.7051 12.3137 23.7051 12.1147C23.7051 11.9158 23.6261 11.7251 23.4854 11.5844C23.3448 11.4438 23.154 11.3647 22.9551 11.3647ZM6.94258 6.11475H17.9676L20.301 11.3647H4.60914L6.94258 6.11475ZM20.7051 20.3647H18.4551V18.1147C18.4551 17.9158 18.3761 17.7251 18.2354 17.5844C18.0948 17.4438 17.904 17.3647 17.7051 17.3647H7.20508C7.00617 17.3647 6.8154 17.4438 6.67475 17.5844C6.5341 17.7251 6.45508 17.9158 6.45508 18.1147V20.3647H4.20508V12.8647H20.7051V20.3647Z" fill="white"/>
</svg>
