<svg width="114" height="114" viewBox="0 0 114 114" fill="none" xmlns="http://www.w3.org/2000/svg">
<g id="CheckCircle">
<path id="Vector" d="M57 10.6875C47.8403 10.6875 38.8862 13.4037 31.2702 18.4926C23.6541 23.5814 17.7181 30.8145 14.2129 39.277C10.7076 47.7395 9.79042 57.0514 11.5774 66.0351C13.3644 75.0189 17.7752 83.271 24.2521 89.7479C30.7291 96.2248 38.9812 100.636 47.9649 102.423C56.9486 104.21 66.2605 103.292 74.723 99.7872C83.1855 96.2819 90.4186 90.3459 95.5075 82.7298C100.596 75.1138 103.313 66.1597 103.313 57C103.3 44.7211 98.4161 32.9489 89.7336 24.2664C81.0511 15.584 69.2789 10.7005 57 10.6875ZM77.333 48.833L52.3955 73.7705C52.0646 74.1017 51.6717 74.3645 51.2392 74.5437C50.8068 74.723 50.3432 74.8153 49.875 74.8153C49.4069 74.8153 48.9433 74.723 48.5108 74.5437C48.0783 74.3645 47.6854 74.1017 47.3545 73.7705L36.667 63.083C35.9986 62.4145 35.623 61.5079 35.623 60.5625C35.623 59.6171 35.9986 58.7105 36.667 58.042C37.3355 57.3736 38.2422 56.998 39.1875 56.998C40.1329 56.998 41.0395 57.3736 41.708 58.042L49.875 66.2135L72.292 43.792C72.623 43.461 73.016 43.1985 73.4485 43.0193C73.8809 42.8402 74.3444 42.748 74.8125 42.748C75.2806 42.748 75.7441 42.8402 76.1766 43.0193C76.6091 43.1985 77.002 43.461 77.333 43.792C77.664 44.123 77.9265 44.516 78.1057 44.9484C78.2848 45.3809 78.377 45.8444 78.377 46.3125C78.377 46.7806 78.2848 47.2441 78.1057 47.6766C77.9265 48.109 77.664 48.502 77.333 48.833Z" fill="#15CC74"/>
</g>
</svg>
