<svg width="25" height="24" viewBox="0 0 25 24" fill="none" xmlns="http://www.w3.org/2000/svg">
<g id="CircleNotch">
<path id="Vector" d="M22.25 12C22.25 14.5858 21.2228 17.0658 19.3943 18.8943C17.5658 20.7228 15.0859 21.75 12.5 21.75C9.91414 21.75 7.43419 20.7228 5.60571 18.8943C3.77723 17.0658 2.75 14.5858 2.75 12C2.75 8.15624 4.98219 4.65374 8.43688 3.06843C8.52638 3.02731 8.62311 3.00422 8.72153 3.00048C8.81996 2.99674 8.91816 3.01243 9.01052 3.04664C9.10289 3.08085 9.18761 3.13292 9.25985 3.19988C9.3321 3.26683 9.39044 3.34736 9.43156 3.43686C9.47268 3.52637 9.49577 3.62309 9.49951 3.72152C9.50325 3.81995 9.48756 3.91815 9.45335 4.01051C9.41914 4.10288 9.36707 4.1876 9.30011 4.25984C9.23316 4.33208 9.15263 4.39043 9.06312 4.43155C6.13906 5.77405 4.25 8.74405 4.25 12C4.25 14.188 5.11919 16.2864 6.66637 17.8336C8.21354 19.3808 10.312 20.25 12.5 20.25C14.688 20.25 16.7865 19.3808 18.3336 17.8336C19.8808 16.2864 20.75 14.188 20.75 12C20.75 8.74405 18.8609 5.77405 15.9369 4.43155C15.7561 4.34851 15.6157 4.19705 15.5466 4.01051C15.4776 3.82397 15.4854 3.61763 15.5684 3.43686C15.6515 3.2561 15.8029 3.11573 15.9895 3.04664C16.176 2.97754 16.3824 2.98538 16.5631 3.06843C20.0178 4.65374 22.25 8.15624 22.25 12Z" fill="#00214C"/>
</g>
</svg>
