<svg width="17" height="17" viewBox="0 0 17 17" fill="none" xmlns="http://www.w3.org/2000/svg">
<path d="M13.7441 2.41809H5.74414C5.61153 2.41809 5.48436 2.47077 5.39059 2.56454C5.29682 2.65831 5.24414 2.78548 5.24414 2.91809V5.41809H2.74414C2.61153 5.41809 2.48436 5.47077 2.39059 5.56454C2.29682 5.65831 2.24414 5.78548 2.24414 5.91809V13.9181C2.24414 14.0507 2.29682 14.1779 2.39059 14.2716C2.48436 14.3654 2.61153 14.4181 2.74414 14.4181H10.7441C10.8767 14.4181 11.0039 14.3654 11.0977 14.2716C11.1915 14.1779 11.2441 14.0507 11.2441 13.9181V11.4181H13.7441C13.8767 11.4181 14.0039 11.3654 14.0977 11.2716C14.1915 11.1779 14.2441 11.0507 14.2441 10.9181V2.91809C14.2441 2.78548 14.1915 2.65831 14.0977 2.56454C14.0039 2.47077 13.8767 2.41809 13.7441 2.41809ZM10.2441 13.4181H3.24414V6.41809H10.2441V13.4181ZM13.2441 10.4181H11.2441V5.91809C11.2441 5.78548 11.1915 5.65831 11.0977 5.56454C11.0039 5.47077 10.8767 5.41809 10.7441 5.41809H6.24414V3.41809H13.2441V10.4181Z" fill="#166BEF"/>
</svg>
