<svg width="21" height="21" viewBox="0 0 21 21" fill="none" xmlns="http://www.w3.org/2000/svg">
<g id="DotOutline">
<path id="Vector" d="M10.0615 8C9.56707 8 9.08372 8.14662 8.6726 8.42133C8.26148 8.69603 7.94104 9.08648 7.75183 9.54329C7.56261 10.0001 7.5131 10.5028 7.60956 10.9877C7.70602 11.4727 7.94413 11.9181 8.29376 12.2678C8.64339 12.6174 9.08885 12.8555 9.5738 12.952C10.0588 13.0484 10.5614 12.9989 11.0182 12.8097C11.475 12.6205 11.8655 12.3 12.1402 11.8889C12.4149 11.4778 12.5615 10.9945 12.5615 10.5C12.5615 9.83696 12.2981 9.20107 11.8293 8.73223C11.3605 8.26339 10.7246 8 10.0615 8ZM10.0615 11.75C9.8143 11.75 9.57262 11.6767 9.36706 11.5393C9.1615 11.402 9.00128 11.2068 8.90668 10.9784C8.81207 10.7499 8.78731 10.4986 8.83554 10.2561C8.88377 10.0137 9.00283 9.79093 9.17764 9.61612C9.35246 9.4413 9.57519 9.32225 9.81766 9.27402C10.0601 9.22579 10.3115 9.25054 10.5399 9.34515C10.7683 9.43976 10.9635 9.59998 11.1009 9.80554C11.2382 10.0111 11.3115 10.2528 11.3115 10.5C11.3115 10.8315 11.1798 11.1495 10.9454 11.3839C10.711 11.6183 10.393 11.75 10.0615 11.75Z" fill="#00214C"/>
</g>
</svg>
