<svg width="22" height="22" viewBox="0 0 22 22" fill="none" xmlns="http://www.w3.org/2000/svg">
<g id="DownloadSimple">
<path id="Vector" d="M18.826 13.2515V17.8167C18.826 18.1626 18.6886 18.4944 18.444 18.739C18.1994 18.9836 17.8676 19.121 17.5217 19.121H4.47818C4.13224 19.121 3.80048 18.9836 3.55586 18.739C3.31125 18.4944 3.17383 18.1626 3.17383 17.8167V13.2515C3.17383 13.0785 3.24254 12.9126 3.36485 12.7903C3.48715 12.668 3.65303 12.5993 3.826 12.5993C3.99897 12.5993 4.16485 12.668 4.28716 12.7903C4.40946 12.9126 4.47818 13.0785 4.47818 13.2515V17.8167H17.5217V13.2515C17.5217 13.0785 17.5904 12.9126 17.7127 12.7903C17.835 12.668 18.0009 12.5993 18.1738 12.5993C18.3468 12.5993 18.5127 12.668 18.635 12.7903C18.7573 12.9126 18.826 13.0785 18.826 13.2515ZM10.5385 13.7129C10.5991 13.7735 10.671 13.8216 10.7502 13.8545C10.8293 13.8873 10.9142 13.9042 10.9999 13.9042C11.0856 13.9042 11.1705 13.8873 11.2497 13.8545C11.3288 13.8216 11.4008 13.7735 11.4613 13.7129L14.7222 10.452C14.7828 10.3914 14.8309 10.3195 14.8637 10.2403C14.8964 10.1612 14.9133 10.0763 14.9133 9.99061C14.9133 9.90492 14.8964 9.82007 14.8637 9.7409C14.8309 9.66173 14.7828 9.58979 14.7222 9.5292C14.6616 9.4686 14.5897 9.42054 14.5105 9.38775C14.4313 9.35495 14.3465 9.33807 14.2608 9.33807C14.1751 9.33807 14.0902 9.35495 14.0111 9.38775C13.9319 9.42054 13.86 9.4686 13.7994 9.5292L11.6521 11.6773V4.12105C11.6521 3.94808 11.5834 3.7822 11.4611 3.65989C11.3388 3.53758 11.1729 3.46887 10.9999 3.46887C10.8269 3.46887 10.6611 3.53758 10.5388 3.65989C10.4165 3.7822 10.3477 3.94808 10.3477 4.12105V11.6773L8.20046 9.5292C8.07808 9.40682 7.91211 9.33807 7.73905 9.33807C7.56598 9.33807 7.40001 9.40682 7.27763 9.5292C7.15526 9.65157 7.08651 9.81755 7.08651 9.99061C7.08651 10.1637 7.15526 10.3297 7.27763 10.452L10.5385 13.7129Z" fill="white"/>
</g>
</svg>
