<svg width="21" height="21" viewBox="0 0 21 21" fill="none" xmlns="http://www.w3.org/2000/svg">
<g id="EnvelopeSimple">
<path id="Vector" d="M18.248 4.27637H3.24805C3.08229 4.27637 2.92332 4.34222 2.80611 4.45943C2.68889 4.57664 2.62305 4.73561 2.62305 4.90137V15.5264C2.62305 15.8579 2.75474 16.1758 2.98916 16.4103C3.22358 16.6447 3.54153 16.7764 3.87305 16.7764H17.623C17.9546 16.7764 18.2725 16.6447 18.5069 16.4103C18.7414 16.1758 18.873 15.8579 18.873 15.5264V4.90137C18.873 4.73561 18.8072 4.57664 18.69 4.45943C18.5728 4.34222 18.4138 4.27637 18.248 4.27637ZM16.641 5.52637L10.748 10.9287L4.85508 5.52637H16.641ZM17.623 15.5264H3.87305V6.32246L10.3254 12.2373C10.4407 12.3432 10.5915 12.4019 10.748 12.4019C10.9046 12.4019 11.0554 12.3432 11.1707 12.2373L17.623 6.32246V15.5264Z" fill="#00214C"/>
</g>
</svg>
