<svg width="33" height="32" viewBox="0 0 33 32" fill="none" xmlns="http://www.w3.org/2000/svg">
<g id="Envelope">
<path id="Vector" d="M28.1836 6H4.18359C3.91838 6 3.66402 6.10536 3.47649 6.29289C3.28895 6.48043 3.18359 6.73478 3.18359 7V24C3.18359 24.5304 3.39431 25.0391 3.76938 25.4142C4.14445 25.7893 4.65316 26 5.18359 26H27.1836C27.714 26 28.2227 25.7893 28.5978 25.4142C28.9729 25.0391 29.1836 24.5304 29.1836 24V7C29.1836 6.73478 29.0782 6.48043 28.8907 6.29289C28.7032 6.10536 28.4488 6 28.1836 6ZM16.1836 16.6437L6.75484 8H25.6123L16.1836 16.6437ZM12.5223 16L5.18359 22.7262V9.27375L12.5223 16ZM14.0023 17.3563L15.5023 18.7375C15.6868 18.9069 15.9282 19.0008 16.1786 19.0008C16.429 19.0008 16.6704 18.9069 16.8548 18.7375L18.3548 17.3563L25.6048 24H6.75484L14.0023 17.3563ZM19.8448 16L27.1836 9.2725V22.7275L19.8448 16Z" fill="#166BEF"/>
</g>
</svg>
