<svg width="20" height="21" viewBox="0 0 20 21" fill="none" xmlns="http://www.w3.org/2000/svg">
<g id="FacebookLogo">
<path id="Vector" d="M18.125 10.3438C18.1224 12.3296 17.3938 14.2459 16.0764 15.7318C14.7591 17.2177 12.9438 18.1706 10.9726 18.411C10.9287 18.4159 10.8843 18.4116 10.8422 18.3981C10.8001 18.3846 10.7614 18.3624 10.7286 18.3329C10.6957 18.3033 10.6695 18.2672 10.6516 18.2268C10.6338 18.1864 10.6247 18.1427 10.625 18.0985V12.2188H12.5C12.5856 12.219 12.6704 12.2015 12.7491 12.1676C12.8278 12.1336 12.8986 12.0838 12.9572 12.0213C13.0158 11.9589 13.061 11.885 13.0898 11.8043C13.1187 11.7236 13.1306 11.6379 13.125 11.5524C13.1112 11.3917 13.037 11.2421 12.9174 11.1339C12.7979 11.0256 12.6417 10.9666 12.4804 10.9688H10.625V9.09379C10.625 8.76227 10.7567 8.44433 10.9911 8.20991C11.2255 7.97549 11.5434 7.84379 11.875 7.84379H13.125C13.2106 7.84398 13.2954 7.82655 13.3741 7.79258C13.4528 7.75862 13.5236 7.70884 13.5822 7.64635C13.6408 7.58385 13.686 7.50997 13.7148 7.4293C13.7437 7.34862 13.7556 7.26288 13.75 7.17739C13.7361 7.0164 13.6618 6.86664 13.5419 6.75833C13.422 6.65002 13.2654 6.59122 13.1039 6.59379H11.875C11.2119 6.59379 10.576 6.85718 10.1072 7.32603C9.63836 7.79487 9.37496 8.43075 9.37496 9.09379V10.9688H7.49996C7.41428 10.9686 7.32948 10.986 7.25082 11.02C7.17216 11.054 7.10133 11.1037 7.04271 11.1662C6.9841 11.2287 6.93896 11.3026 6.91011 11.3833C6.88125 11.464 6.86929 11.5497 6.87496 11.6352C6.88879 11.7962 6.96316 11.9459 7.08306 12.0543C7.20297 12.1626 7.3595 12.2214 7.52106 12.2188H9.37496V18.1C9.37523 18.1441 9.36616 18.1878 9.34835 18.2281C9.33055 18.2685 9.3044 18.3046 9.27164 18.3341C9.23887 18.3636 9.20023 18.3859 9.15826 18.3994C9.11628 18.4129 9.07192 18.4174 9.02809 18.4125C7.00415 18.1661 5.1465 17.1687 3.82283 15.6179C2.49917 14.0671 1.80597 12.0759 1.88043 10.0383C2.03668 5.81957 5.45387 2.38989 9.67575 2.22582C10.7688 2.18348 11.8591 2.36203 12.8816 2.75079C13.904 3.13956 14.8376 3.73054 15.6263 4.4884C16.4151 5.24626 17.0429 6.15542 17.4723 7.16151C17.9016 8.16759 18.1236 9.24993 18.125 10.3438Z" fill="#166BEF"/>
</g>
</svg>
