<svg width="14" height="15" viewBox="0 0 14 15" fill="none" xmlns="http://www.w3.org/2000/svg">
<path d="M11.8393 5.2655L8.7768 2.203C8.71585 2.14198 8.64348 2.09357 8.56381 2.06054C8.48414 2.02751 8.39874 2.0105 8.3125 2.0105H3.0625C2.77242 2.0105 2.49422 2.12573 2.2891 2.33085C2.08398 2.53597 1.96875 2.81417 1.96875 3.10425V12.7292C1.96875 13.0193 2.08398 13.2975 2.2891 13.5026C2.49422 13.7078 2.77242 13.823 3.0625 13.823H10.9375C11.2276 13.823 11.5058 13.7078 11.7109 13.5026C11.916 13.2975 12.0312 13.0193 12.0312 12.7292V5.72925C12.0312 5.55534 11.9622 5.38854 11.8393 5.2655ZM8.75 4.03394L10.0078 5.29175H8.75V4.03394ZM3.28125 12.5105V3.323H7.4375V5.948C7.4375 6.12205 7.50664 6.28897 7.62971 6.41204C7.75278 6.53511 7.9197 6.60425 8.09375 6.60425H10.7188V12.5105H3.28125ZM9.40625 8.1355C9.40625 8.30955 9.33711 8.47647 9.21404 8.59954C9.09097 8.72261 8.92405 8.79175 8.75 8.79175H5.25C5.07595 8.79175 4.90903 8.72261 4.78596 8.59954C4.66289 8.47647 4.59375 8.30955 4.59375 8.1355C4.59375 7.96145 4.66289 7.79453 4.78596 7.67146C4.90903 7.54839 5.07595 7.47925 5.25 7.47925H8.75C8.92405 7.47925 9.09097 7.54839 9.21404 7.67146C9.33711 7.79453 9.40625 7.96145 9.40625 8.1355ZM9.40625 10.323C9.40625 10.497 9.33711 10.664 9.21404 10.787C9.09097 10.9101 8.92405 10.9792 8.75 10.9792H5.25C5.07595 10.9792 4.90903 10.9101 4.78596 10.787C4.66289 10.664 4.59375 10.497 4.59375 10.323C4.59375 10.1489 4.66289 9.98203 4.78596 9.85896C4.90903 9.73589 5.07595 9.66675 5.25 9.66675H8.75C8.92405 9.66675 9.09097 9.73589 9.21404 9.85896C9.33711 9.98203 9.40625 10.1489 9.40625 10.323Z" fill="#00214C"/>
</svg>
