<svg width="21" height="21" viewBox="0 0 21 21" fill="none" xmlns="http://www.w3.org/2000/svg">
<g id="Flag">
<path id="Vector" d="M3.21562 3.78127C3.14839 3.83956 3.09437 3.91152 3.05718 3.99236C3.02 4.0732 3.0005 4.16105 3 4.25002V17.375C3 17.5408 3.06585 17.6998 3.18306 17.817C3.30027 17.9342 3.45924 18 3.625 18C3.79076 18 3.94973 17.9342 4.06694 17.817C4.18415 17.6998 4.25 17.5408 4.25 17.375V13.9196C6.34297 12.2664 8.14609 13.1578 10.2227 14.186C11.5039 14.8196 12.8836 15.5024 14.3633 15.5024C15.4516 15.5024 16.593 15.1313 17.7867 14.0961C17.854 14.0378 17.908 13.9659 17.9452 13.885C17.9823 13.8042 18.0018 13.7163 18.0023 13.6274V4.25002C18.0021 4.13006 17.9673 4.01271 17.9021 3.91199C17.8369 3.81127 17.7442 3.73143 17.6348 3.68201C17.5255 3.63258 17.4043 3.61566 17.2856 3.63326C17.167 3.65087 17.0559 3.70225 16.9656 3.78127C14.7781 5.67424 12.925 4.75706 10.7773 3.69377C8.55234 2.59065 6.02969 1.34299 3.21562 3.78127ZM16.75 13.3321C14.657 14.9852 12.8539 14.093 10.7773 13.0656C8.82422 12.1008 6.65156 11.0242 4.25 12.4094V4.54612C6.34297 2.89299 8.14609 3.7844 10.2227 4.81174C12.1758 5.77659 14.3492 6.85315 16.75 5.46799V13.3321Z" fill="#00214C"/>
</g>
</svg>
