<svg width="37" height="36" viewBox="0 0 37 36" fill="none" xmlns="http://www.w3.org/2000/svg">
<path d="M34.5332 29.5312H32.002V16.2492C32.0016 15.9764 31.9448 15.7067 31.8352 15.457C31.7256 15.2072 31.5655 14.9828 31.3649 14.7979L20.1149 4.18217L20.1023 4.17092C19.7408 3.83987 19.2684 3.65625 18.7783 3.65625C18.2881 3.65625 17.8158 3.83987 17.4543 4.17092L17.4416 4.18217L6.19164 14.7994C5.99266 14.9846 5.8342 15.2091 5.72626 15.4586C5.61831 15.7081 5.56322 15.9773 5.56445 16.2492V29.5312H3.0332C2.80943 29.5312 2.59482 29.6201 2.43658 29.7784C2.27835 29.9366 2.18945 30.1512 2.18945 30.375C2.18945 30.5988 2.27835 30.8134 2.43658 30.9716C2.59482 31.1298 2.80943 31.2187 3.0332 31.2187H34.5332C34.757 31.2187 34.9716 31.1298 35.1298 30.9716C35.2881 30.8134 35.377 30.5988 35.377 30.375C35.377 30.1512 35.2881 29.9366 35.1298 29.7784C34.9716 29.6201 34.757 29.5312 34.5332 29.5312ZM7.25195 16.2492C7.25187 16.2101 7.25995 16.1713 7.27569 16.1355C7.29143 16.0997 7.31448 16.0675 7.34336 16.0411L7.35602 16.0298L18.5976 5.41545C18.6488 5.37074 18.7145 5.34611 18.7825 5.34611C18.8505 5.34611 18.9162 5.37074 18.9674 5.41545L30.2104 16.0312L30.2216 16.0425C30.2508 16.0688 30.2741 16.1009 30.2901 16.1367C30.3061 16.1726 30.3144 16.2114 30.3145 16.2506V29.5312H23.002V22.5C23.002 21.9778 22.7945 21.4771 22.4253 21.1079C22.0561 20.7387 21.5553 20.5312 21.0332 20.5312H16.5332C16.0111 20.5312 15.5103 20.7387 15.1411 21.1079C14.7719 21.4771 14.5645 21.9778 14.5645 22.5V29.5312H7.25195V16.2492ZM21.3145 29.5312H16.252V22.5C16.252 22.4254 16.2816 22.3538 16.3343 22.3011C16.3871 22.2484 16.4586 22.2187 16.5332 22.2187H21.0332C21.1078 22.2187 21.1793 22.2484 21.2321 22.3011C21.2848 22.3538 21.3145 22.4254 21.3145 22.5V29.5312Z" fill="#00214C"/>
</svg>
