<svg width="21" height="21" viewBox="0 0 21 21" fill="none" xmlns="http://www.w3.org/2000/svg">
<g id="IdentificationCard">
<path id="Vector" d="M16.373 9.27637C16.373 9.44213 16.3072 9.6011 16.19 9.71831C16.0728 9.83552 15.9138 9.90137 15.748 9.90137H12.623C12.4573 9.90137 12.2983 9.83552 12.1811 9.71831C12.0639 9.6011 11.998 9.44213 11.998 9.27637C11.998 9.11061 12.0639 8.95164 12.1811 8.83443C12.2983 8.71722 12.4573 8.65137 12.623 8.65137H15.748C15.9138 8.65137 16.0728 8.71722 16.19 8.83443C16.3072 8.95164 16.373 9.11061 16.373 9.27637ZM15.748 11.1514H12.623C12.4573 11.1514 12.2983 11.2172 12.1811 11.3344C12.0639 11.4516 11.998 11.6106 11.998 11.7764C11.998 11.9421 12.0639 12.1011 12.1811 12.2183C12.2983 12.3355 12.4573 12.4014 12.623 12.4014H15.748C15.9138 12.4014 16.0728 12.3355 16.19 12.2183C16.3072 12.1011 16.373 11.9421 16.373 11.7764C16.373 11.6106 16.3072 11.4516 16.19 11.3344C16.0728 11.2172 15.9138 11.1514 15.748 11.1514ZM18.873 4.90137V16.1514C18.873 16.4829 18.7414 16.8008 18.5069 17.0353C18.2725 17.2697 17.9546 17.4014 17.623 17.4014H3.87305C3.54153 17.4014 3.22358 17.2697 2.98916 17.0353C2.75474 16.8008 2.62305 16.4829 2.62305 16.1514V4.90137C2.62305 4.56985 2.75474 4.2519 2.98916 4.01748C3.22358 3.78306 3.54153 3.65137 3.87305 3.65137H17.623C17.9546 3.65137 18.2725 3.78306 18.5069 4.01748C18.7414 4.2519 18.873 4.56985 18.873 4.90137ZM17.623 16.1514V4.90137H3.87305V16.1514H17.623ZM11.3527 13.4951C11.3942 13.6557 11.3701 13.8262 11.2859 13.969C11.2016 14.1119 11.0641 14.2154 10.9035 14.2568C10.7429 14.2983 10.5725 14.2742 10.4296 14.19C10.2868 14.1057 10.1832 13.9682 10.1418 13.8076C9.93633 13.0061 9.12148 12.4014 8.24727 12.4014C7.37305 12.4014 6.55898 13.0061 6.35273 13.8076C6.31129 13.9682 6.20776 14.1057 6.06491 14.19C5.92206 14.2742 5.7516 14.2983 5.59102 14.2568C5.43044 14.2154 5.29289 14.1119 5.20865 13.969C5.1244 13.8262 5.10036 13.6557 5.1418 13.4951C5.34461 12.7402 5.82403 12.0893 6.48477 11.6717C6.13365 11.3226 5.89407 10.8772 5.7964 10.3919C5.69873 9.9065 5.74737 9.40307 5.93615 8.94539C6.12493 8.48771 6.44535 8.09638 6.85679 7.82102C7.26824 7.54566 7.75218 7.39866 8.24727 7.39866C8.74235 7.39866 9.22629 7.54566 9.63774 7.82102C10.0492 8.09638 10.3696 8.48771 10.5584 8.94539C10.7472 9.40307 10.7958 9.9065 10.6981 10.3919C10.6005 10.8772 10.3609 11.3226 10.0098 11.6717C10.6712 12.0887 11.1511 12.7398 11.3535 13.4951H11.3527ZM8.24805 11.1514C8.49527 11.1514 8.73695 11.0781 8.94251 10.9407C9.14807 10.8034 9.30829 10.6081 9.4029 10.3797C9.49751 10.1513 9.52226 9.89998 9.47403 9.6575C9.4258 9.41503 9.30675 9.1923 9.13193 9.01748C8.95711 8.84267 8.73439 8.72362 8.49191 8.67539C8.24943 8.62715 7.9981 8.65191 7.76969 8.74652C7.54129 8.84113 7.34606 9.00134 7.20871 9.2069C7.07136 9.41247 6.99805 9.65414 6.99805 9.90137C6.99805 10.2329 7.12974 10.5508 7.36416 10.7853C7.59858 11.0197 7.91653 11.1514 8.24805 11.1514Z" fill="#00214C"/>
</g>
</svg>
