<svg width="20" height="21" viewBox="0 0 20 21" fill="none" xmlns="http://www.w3.org/2000/svg">
<g id="InstagramLogo">
<path id="Vector" d="M13.75 2.21875H6.25C5.09006 2.21999 3.97798 2.68133 3.15778 3.50153C2.33758 4.32173 1.87624 5.43381 1.875 6.59375V14.0938C1.87624 15.2537 2.33758 16.3658 3.15778 17.186C3.97798 18.0062 5.09006 18.4675 6.25 18.4688H13.75C14.9099 18.4675 16.022 18.0062 16.8422 17.186C17.6624 16.3658 18.1238 15.2537 18.125 14.0938V6.59375C18.1238 5.43381 17.6624 4.32173 16.8422 3.50153C16.022 2.68133 14.9099 2.21999 13.75 2.21875ZM10 14.0938C9.25832 14.0938 8.5333 13.8738 7.91661 13.4618C7.29993 13.0497 6.81928 12.464 6.53545 11.7788C6.25162 11.0936 6.17736 10.3396 6.32206 9.61216C6.46675 8.88473 6.8239 8.21655 7.34835 7.6921C7.8728 7.16765 8.54098 6.8105 9.26841 6.66581C9.99584 6.52111 10.7498 6.59537 11.4351 6.8792C12.1203 7.16303 12.706 7.64368 13.118 8.26036C13.5301 8.87705 13.75 9.60207 13.75 10.3438C13.749 11.338 13.3535 12.2912 12.6505 12.9943C11.9475 13.6973 10.9942 14.0927 10 14.0938ZM14.6875 6.59375C14.5021 6.59375 14.3208 6.53877 14.1667 6.43575C14.0125 6.33274 13.8923 6.18632 13.8214 6.01502C13.7504 5.84371 13.7318 5.65521 13.768 5.47335C13.8042 5.2915 13.8935 5.12445 14.0246 4.99334C14.1557 4.86223 14.3227 4.77294 14.5046 4.73676C14.6865 4.70059 14.875 4.71916 15.0463 4.79011C15.2176 4.86107 15.364 4.98123 15.467 5.1354C15.57 5.28957 15.625 5.47083 15.625 5.65625C15.625 5.90489 15.5262 6.14335 15.3504 6.31916C15.1746 6.49498 14.9361 6.59375 14.6875 6.59375ZM12.5 10.3438C12.5 10.8382 12.3534 11.3216 12.0787 11.7327C11.804 12.1438 11.4135 12.4642 10.9567 12.6534C10.4999 12.8427 9.99723 12.8922 9.51227 12.7957C9.02732 12.6993 8.58186 12.4611 8.23223 12.1115C7.8826 11.7619 7.6445 11.3164 7.54804 10.8315C7.45157 10.3465 7.50108 9.84386 7.6903 9.38704C7.87952 8.93023 8.19995 8.53978 8.61107 8.26508C9.0222 7.99037 9.50555 7.84375 10 7.84375C10.663 7.84375 11.2989 8.10714 11.7678 8.57598C12.2366 9.04482 12.5 9.68071 12.5 10.3438Z" fill="#166BEF"/>
</g>
</svg>
