<svg width="21" height="21" viewBox="0 0 21 21" fill="none" xmlns="http://www.w3.org/2000/svg">
<g id="Key">
<path id="Vector" d="M13.248 1.77637C12.2616 1.77725 11.2893 2.01143 10.4106 2.45977C9.53189 2.90812 8.77167 3.55793 8.19202 4.35614C7.61237 5.15435 7.22972 6.07833 7.0753 7.05264C6.92088 8.02696 6.99908 9.02398 7.30352 9.96231L2.80586 14.4592C2.74784 14.5173 2.70183 14.5862 2.67046 14.6621C2.63909 14.738 2.62298 14.8193 2.62305 14.9014V18.0264C2.62305 18.1921 2.6889 18.3511 2.80611 18.4683C2.92332 18.5855 3.08229 18.6514 3.24805 18.6514H6.37305C6.53881 18.6514 6.69778 18.5855 6.81499 18.4683C6.9322 18.3511 6.99805 18.1921 6.99805 18.0264V16.7764H8.24805C8.41381 16.7764 8.57278 16.7105 8.68999 16.5933C8.8072 16.4761 8.87305 16.3171 8.87305 16.1514V14.9014H10.123C10.2051 14.9014 10.2865 14.8853 10.3623 14.854C10.4382 14.8226 10.5071 14.7766 10.5652 14.7186L11.3121 13.9709C12.1711 14.2498 13.0804 14.3392 13.9772 14.233C14.8741 14.1268 15.7373 13.8274 16.5074 13.3556C17.2775 12.8838 17.9362 12.2506 18.4381 11.4998C18.94 10.749 19.2732 9.89828 19.4148 9.00631C19.5564 8.11434 19.5031 7.20227 19.2583 6.33291C19.0136 5.46355 18.5834 4.65756 17.9973 3.97042C17.4112 3.28328 16.6832 2.73133 15.8633 2.35256C15.0434 1.9738 14.1512 1.77722 13.248 1.77637ZM13.248 13.0264C12.6154 13.0274 11.9883 12.9079 11.4004 12.674C11.2854 12.6241 11.158 12.6099 11.0349 12.6333C10.9117 12.6568 10.7984 12.7167 10.7098 12.8053L9.86445 13.6514H8.24805C8.08229 13.6514 7.92332 13.7172 7.80611 13.8344C7.6889 13.9516 7.62305 14.1106 7.62305 14.2764V15.5264H6.37305C6.20729 15.5264 6.04832 15.5922 5.93111 15.7094C5.8139 15.8266 5.74805 15.9856 5.74805 16.1514V17.4014H3.87305V15.16L8.46914 10.5646C8.55776 10.476 8.61766 10.3627 8.64107 10.2395C8.66447 10.1164 8.6503 9.98903 8.60039 9.87402C8.20515 8.88015 8.13903 7.78573 8.41174 6.75151C8.68445 5.71729 9.28162 4.79777 10.1155 4.12801C10.9495 3.45825 11.9762 3.07356 13.0449 3.03043C14.1136 2.98731 15.1679 3.28802 16.0531 3.8884C16.9383 4.48878 17.6076 5.35719 17.9628 6.36608C18.3179 7.37497 18.3402 8.47115 18.0263 9.49364C17.7125 10.5161 17.079 11.411 16.219 12.0469C15.3589 12.6827 14.3176 13.026 13.248 13.0264ZM15.748 6.46387C15.748 6.64929 15.6931 6.83054 15.59 6.98471C15.487 7.13889 15.3406 7.25905 15.1693 7.33C14.998 7.40096 14.8095 7.41953 14.6277 7.38335C14.4458 7.34718 14.2787 7.25789 14.1476 7.12678C14.0165 6.99567 13.9272 6.82862 13.8911 6.64676C13.8549 6.46491 13.8735 6.27641 13.9444 6.1051C14.0154 5.9338 14.1355 5.78738 14.2897 5.68436C14.4439 5.58135 14.6251 5.52637 14.8105 5.52637C15.0592 5.52637 15.2976 5.62514 15.4735 5.80095C15.6493 5.97677 15.748 6.21523 15.748 6.46387Z" fill="#00214C"/>
</g>
</svg>
