<svg width="20" height="21" viewBox="0 0 20 21" fill="none" xmlns="http://www.w3.org/2000/svg">
<g id="LinkedinLogo">
<path id="Vector" d="M16.875 2.21875H3.125C2.79348 2.21875 2.47554 2.35045 2.24112 2.58487C2.0067 2.81929 1.875 3.13723 1.875 3.46875V17.2188C1.875 17.5503 2.0067 17.8682 2.24112 18.1026C2.47554 18.3371 2.79348 18.4688 3.125 18.4688H16.875C17.2065 18.4688 17.5245 18.3371 17.7589 18.1026C17.9933 17.8682 18.125 17.5503 18.125 17.2188V3.46875C18.125 3.13723 17.9933 2.81929 17.7589 2.58487C17.5245 2.35045 17.2065 2.21875 16.875 2.21875ZM7.5 14.0938C7.5 14.2595 7.43415 14.4185 7.31694 14.5357C7.19973 14.6529 7.04076 14.7188 6.875 14.7188C6.70924 14.7188 6.55027 14.6529 6.43306 14.5357C6.31585 14.4185 6.25 14.2595 6.25 14.0938V9.09375C6.25 8.92799 6.31585 8.76902 6.43306 8.65181C6.55027 8.5346 6.70924 8.46875 6.875 8.46875C7.04076 8.46875 7.19973 8.5346 7.31694 8.65181C7.43415 8.76902 7.5 8.92799 7.5 9.09375V14.0938ZM6.875 7.84375C6.68958 7.84375 6.50832 7.78877 6.35415 7.68575C6.19998 7.58274 6.07982 7.43632 6.00886 7.26502C5.93791 7.09371 5.91934 6.90521 5.95551 6.72335C5.99169 6.5415 6.08098 6.37445 6.21209 6.24334C6.3432 6.11223 6.51025 6.02294 6.6921 5.98676C6.87396 5.95059 7.06246 5.96916 7.23377 6.04011C7.40507 6.11107 7.55149 6.23123 7.6545 6.3854C7.75752 6.53957 7.8125 6.72083 7.8125 6.90625C7.8125 7.15489 7.71373 7.39335 7.53791 7.56916C7.3621 7.74498 7.12364 7.84375 6.875 7.84375ZM14.375 14.0938C14.375 14.2595 14.3092 14.4185 14.1919 14.5357C14.0747 14.6529 13.9158 14.7188 13.75 14.7188C13.5842 14.7188 13.4253 14.6529 13.3081 14.5357C13.1908 14.4185 13.125 14.2595 13.125 14.0938V11.2812C13.125 10.8668 12.9604 10.4694 12.6674 10.1764C12.3743 9.88337 11.9769 9.71875 11.5625 9.71875C11.1481 9.71875 10.7507 9.88337 10.4576 10.1764C10.1646 10.4694 10 10.8668 10 11.2812V14.0938C10 14.2595 9.93415 14.4185 9.81694 14.5357C9.69973 14.6529 9.54076 14.7188 9.375 14.7188C9.20924 14.7188 9.05027 14.6529 8.93306 14.5357C8.81585 14.4185 8.75 14.2595 8.75 14.0938V9.09375C8.75078 8.94066 8.80771 8.79318 8.91001 8.67928C9.01231 8.56539 9.15285 8.493 9.30498 8.47585C9.45711 8.4587 9.61024 8.49798 9.73533 8.58625C9.86041 8.67451 9.94876 8.80561 9.98359 8.95469C10.4064 8.66787 10.8993 8.50164 11.4095 8.47384C11.9196 8.44605 12.4277 8.55774 12.8792 8.79692C13.3306 9.03611 13.7084 9.39375 13.972 9.83144C14.2355 10.2691 14.3748 10.7703 14.375 11.2812V14.0938Z" fill="#166BEF"/>
</g>
</svg>
