<svg width="101" height="20" viewBox="0 0 101 20" fill="none" xmlns="http://www.w3.org/2000/svg">
<g id="_219784482432">
<g id="_219992181520">
<path id="Vector" fill-rule="evenodd" clip-rule="evenodd" d="M72.2949 5.3728C76.3183 5.3728 79.5801 8.64715 79.5801 12.6862C79.5801 16.7254 76.3183 20 72.2949 20C68.2714 20 65.0098 16.7254 65.0098 12.6862C65.0098 8.64715 68.2714 5.3728 72.2949 5.3728ZM75.6016 9.36691C74.7556 8.51755 73.5862 7.99196 72.2949 7.99196C71.0034 7.99196 69.8341 8.51755 68.9882 9.36691C68.1423 10.2162 67.6188 11.39 67.6188 12.6862C67.6188 13.9828 68.1423 15.1565 68.9882 16.0059C69.8341 16.8552 71.0034 17.3806 72.2949 17.3806C73.5862 17.3806 74.7556 16.8552 75.6016 16.0059C76.4474 15.1565 76.971 13.9828 76.971 12.6862C76.971 11.39 76.4474 10.2162 75.6016 9.36691Z" fill="#ADB4CF"/>
<path id="Vector_2" d="M95.0859 20H92.0438V12.6601C92.0438 12.0729 91.9317 11.515 91.7076 10.9867C91.4831 10.4581 91.1767 10.0028 90.7861 9.62133C90.3963 9.23964 89.9432 8.93611 89.4265 8.71101C88.9099 8.48598 88.3589 8.37365 87.7743 8.37365C87.1891 8.37365 86.6383 8.48598 86.1217 8.71101C85.6052 8.93611 85.1516 9.23964 84.7617 9.62133C84.3717 10.0028 84.0646 10.4581 83.8404 10.9867C83.6162 11.515 83.5041 12.0729 83.5041 12.6601V20H80.4623V12.6601C80.4431 11.6617 80.6233 10.7175 81.0035 9.82703C81.3838 8.93611 81.9053 8.15815 82.5681 7.49272C83.2312 6.82728 84.0111 6.29898 84.9082 5.90723C85.8047 5.51599 86.7601 5.32002 87.7743 5.32002C88.7879 5.32002 89.7433 5.51599 90.6405 5.90723C91.5374 6.29898 92.3169 6.82728 92.9798 7.49272C93.6426 8.15815 94.1644 8.93611 94.5441 9.82703C94.9249 10.7175 95.1049 11.6617 95.0859 12.6601V20Z" fill="#ADB4CF"/>
<path id="Vector_3" fill-rule="evenodd" clip-rule="evenodd" d="M90.6055 2.9315L90.6326 4.64291C94.0878 4.81523 96.2995 7.75544 96.2536 10.3473L97.9436 10.297C98.0811 6.35929 94.3058 2.75119 90.6055 2.9315Z" fill="#ADB4CF"/>
<path id="Vector_4" fill-rule="evenodd" clip-rule="evenodd" d="M90.7645 0L90.6914 1.62525C96.0302 1.59393 99.4961 6.24845 99.3387 10.183L100.857 10.1555C101.061 4.62456 96.2362 0.059352 90.7645 0Z" fill="#ADB4CF"/>
<path id="Vector_5" d="M25.3299 17.6422C24.8812 16.9357 24.4127 16.2466 23.9242 15.5753C23.4362 14.9039 22.9104 14.2592 22.3471 13.6411C22.7958 13.5174 23.1656 13.3096 23.4559 13.0184C23.7462 12.7269 23.955 12.3955 24.0827 12.0247C24.2103 11.6537 24.2521 11.2671 24.2082 10.8652C24.1641 10.4633 24.0277 10.0968 23.799 9.76588C23.5703 9.43465 23.2469 9.16296 22.8288 8.95087C22.411 8.73899 21.894 8.63304 21.2783 8.63304H19.2324V17.8675L20.1034 17.7746V13.6809H20.8955C21.0627 13.6809 21.2518 13.7645 21.4629 13.9325C21.6741 14.1003 21.894 14.3167 22.1227 14.5816C22.3515 14.8466 22.5804 15.1404 22.8091 15.4628C23.0379 15.7851 23.2535 16.1009 23.4559 16.4103C23.6583 16.7193 23.8386 17.0064 23.9969 17.2712C24.1552 17.5361 24.2786 17.7395 24.3665 17.8807L25.3299 17.6422ZM20.1034 9.45417H21.2783C21.8675 9.45417 22.3471 9.60903 22.7168 9.91797C23.0863 10.2271 23.2713 10.6909 23.2713 11.3092C23.2713 11.6007 23.2204 11.8524 23.1194 12.0644C23.018 12.2763 22.8796 12.453 22.7036 12.5942C22.5276 12.7355 22.3207 12.8395 22.0831 12.9056C21.8458 12.972 21.5951 13.0052 21.331 13.0052H20.1034V9.45417Z" fill="#ADB4CF"/>
<path id="Vector_6" d="M32.3376 17.6422C31.889 16.9357 31.4204 16.2466 30.9322 15.5753C30.4439 14.9039 29.9181 14.2592 29.3551 13.6411C29.8035 13.5174 30.1733 13.3096 30.4634 13.0184C30.7539 12.7269 30.9627 12.3955 31.0905 12.0247C31.218 11.6537 31.2598 11.2671 31.2159 10.8652C31.1717 10.4633 31.0354 10.0968 30.8067 9.76588C30.578 9.43465 30.2546 9.16296 29.8366 8.95087C29.4188 8.73899 28.9018 8.63304 28.2861 8.63304H26.2402V17.8675L27.1112 17.7746V13.6809H27.9034C28.0704 13.6809 28.2596 13.7645 28.4706 13.9325C28.6821 14.1003 28.9018 14.3167 29.1305 14.5816C29.3592 14.8466 29.5882 15.1404 29.8169 15.4628C30.0455 15.7851 30.2612 16.1009 30.4634 16.4103C30.6658 16.7193 30.8463 17.0064 31.0046 17.2712C31.1629 17.5361 31.2863 17.7395 31.3744 17.8807L32.3376 17.6422ZM27.1112 9.45417H28.2861C28.8755 9.45417 29.3551 9.60903 29.7245 9.91797C30.094 10.2271 30.2788 10.6909 30.2788 11.3092C30.2788 11.6007 30.2281 11.8524 30.1271 12.0644C30.0256 12.2763 29.8874 12.453 29.7113 12.5942C29.5352 12.7355 29.3287 12.8395 29.0911 12.9056C28.8535 12.972 28.6029 13.0052 28.3388 13.0052H27.1112V9.45417Z" fill="#ADB4CF"/>
<path id="Vector_7" d="M38.8312 16.9928H34.41V13.588H38.3034V12.7666H34.41V9.45429H38.6729L38.5805 8.6329H33.5391V17.8276H38.7519L38.8312 16.9928Z" fill="#ADB4CF"/>
<path id="Vector_8" d="M46.4618 9.45407V8.63274H39.863L39.7441 9.46728H42.7137V17.8674L43.5847 17.7745V9.45407H46.4618Z" fill="#ADB4CF"/>
<path id="Vector_9" d="M56.8622 13.2301C56.8622 12.5589 56.7347 11.9317 56.4795 11.3486C56.2242 10.766 55.8789 10.2603 55.4434 9.83185C55.008 9.4033 54.4954 9.06801 53.906 8.82499C53.3163 8.58191 52.6917 8.46076 52.0318 8.46076C51.3631 8.46076 50.7362 8.58191 50.1513 8.82499C49.566 9.06801 49.0557 9.4033 48.6203 9.83185C48.1845 10.2603 47.8417 10.766 47.5908 11.3486C47.3401 11.9317 47.2148 12.5589 47.2148 13.2301C47.2148 13.9103 47.3421 14.5395 47.5974 15.1182C47.8525 15.6967 48.1982 16.2003 48.6334 16.6286C49.0689 17.0569 49.5793 17.3924 50.1642 17.6355C50.7494 17.8783 51.3762 17.9999 52.0449 17.9999C52.7048 17.9999 53.3274 17.8783 53.9123 17.6355C54.4975 17.3924 55.008 17.0569 55.4434 16.6286C55.8789 16.2003 56.2242 15.6945 56.4795 15.1115C56.7347 14.5286 56.8622 13.9014 56.8622 13.2301ZM55.9251 13.2301C55.9251 13.7691 55.8238 14.2767 55.6216 14.7537C55.4192 15.2307 55.142 15.6458 54.7901 15.9991C54.4382 16.3526 54.0246 16.6332 53.5495 16.8407C53.0744 17.048 52.5683 17.1517 52.0318 17.1517C51.4865 17.1517 50.9783 17.0503 50.5075 16.8473C50.0367 16.6441 49.6275 16.3635 49.2802 16.0059C48.9325 15.6481 48.6576 15.2329 48.4552 14.7603C48.253 14.2879 48.1517 13.7778 48.1517 13.2301C48.1517 12.6913 48.253 12.1836 48.4552 11.7067C48.6576 11.2295 48.9325 10.8123 49.2802 10.4545C49.6275 10.0966 50.039 9.81638 50.5141 9.61313C50.989 9.41014 51.4994 9.30851 52.0449 9.30851C52.5819 9.30851 53.0853 9.4122 53.5561 9.61977C54.0269 9.82734 54.4382 10.1101 54.7901 10.4679C55.142 10.8253 55.4192 11.2406 55.6216 11.7133C55.8238 12.1857 55.9251 12.6913 55.9251 13.2301Z" fill="#ADB4CF"/>
<path id="Vector_10" d="M64.0425 17.6422C63.5939 16.9357 63.1253 16.2466 62.6371 15.5753C62.1489 14.9039 61.623 14.2592 61.06 13.6411C61.5084 13.5174 61.8782 13.3096 62.1686 13.0184C62.4591 12.7269 62.6677 12.3955 62.7954 12.0247C62.9229 11.6537 62.9648 11.2671 62.9211 10.8652C62.8769 10.4633 62.7403 10.0968 62.5116 9.76588C62.2829 9.43465 61.9598 9.16296 61.5417 8.95087C61.1236 8.73899 60.6069 8.63304 59.9909 8.63304H57.9453V17.8675L58.8163 17.7746V13.6809H59.6082C59.7756 13.6809 59.9646 13.7645 60.1755 13.9325C60.387 14.1003 60.6069 14.3167 60.8356 14.5816C61.0643 14.8466 61.2933 15.1404 61.522 15.4628C61.7505 15.7851 61.9663 16.1009 62.1686 16.4103C62.371 16.7193 62.5513 17.0064 62.7095 17.2712C62.8681 17.5361 62.9913 17.7395 63.0793 17.8807L64.0425 17.6422ZM58.8163 9.45417H59.9909C60.5804 9.45417 61.06 9.60903 61.4294 9.91797C61.799 10.2271 61.9838 10.6909 61.9838 11.3092C61.9838 11.6007 61.9332 11.8524 61.8323 12.0644C61.7306 12.2763 61.5924 12.453 61.4162 12.5942C61.2403 12.7355 61.0335 12.8395 60.796 12.9056C60.5584 12.972 60.3077 13.0052 60.0437 13.0052H58.8163V9.45417Z" fill="#ADB4CF"/>
<path id="Vector_11" d="M7.35108 16.3172C6.95526 16.5734 6.53743 16.7767 6.09739 16.9267C5.65741 17.0768 5.20427 17.1518 4.73797 17.1518C4.10457 17.1518 3.5502 17.0395 3.07511 16.8142C2.59995 16.5889 2.20388 16.2929 1.88728 15.9264C1.57049 15.5597 1.33522 15.1425 1.18122 14.6742C1.02696 14.2062 0.950187 13.7292 0.950187 13.2436C0.950187 12.7489 1.02947 12.2674 1.18777 11.7993C1.34607 11.3312 1.58364 10.9138 1.90069 10.5473C2.21723 10.1806 2.61086 9.88493 3.08166 9.65964C3.55245 9.43454 4.10027 9.32177 4.72481 9.32177C5.19111 9.32177 5.63995 9.39678 6.07094 9.54687C6.50206 9.69734 6.91559 9.88719 7.31147 10.1167L7.23245 9.08333C6.87168 8.88008 6.48242 8.72548 6.06433 8.61953C5.64656 8.51359 5.23078 8.46062 4.81725 8.46062C4.15708 8.46062 3.5348 8.58177 2.94961 8.82485C2.36443 9.06786 1.85422 9.40342 1.41873 9.83196C0.983311 10.2602 0.637951 10.766 0.382719 11.3487C0.127744 11.9316 0 12.5591 0 13.2302C0 13.937 0.121132 14.5815 0.362755 15.1646C0.604892 15.7475 0.939338 16.2488 1.36597 16.6682C1.79266 17.0877 2.30081 17.4146 2.8903 17.6488C3.47997 17.8829 4.12223 17.9998 4.81725 17.9998C5.23957 17.9998 5.6619 17.9404 6.08429 17.8211C6.50636 17.7015 6.9025 17.5405 7.2718 17.3373L7.35108 16.3172Z" fill="#ADB4CF"/>
<path id="Vector_12" d="M18.1473 13.2301C18.1473 12.5589 18.0198 11.9317 17.7646 11.3486C17.5094 10.766 17.1641 10.2603 16.7286 9.83185C16.2931 9.4033 15.7806 9.06801 15.1912 8.82499C14.6014 8.58191 13.9769 8.46076 13.317 8.46076C12.6482 8.46076 12.0214 8.58191 11.4362 8.82499C10.8511 9.06801 10.3409 9.4033 9.90544 9.83185C9.4697 10.2603 9.12685 10.766 8.87591 11.3486C8.62524 11.9317 8.5 12.5589 8.5 13.2301C8.5 13.9103 8.62729 14.5395 8.88253 15.1182C9.13769 15.6967 9.48305 16.2003 9.91854 16.6286C10.354 17.0569 10.8644 17.3924 11.4494 17.6355C12.0345 17.8783 12.6614 17.9999 13.3301 17.9999C13.99 17.9999 14.6125 17.8783 15.1975 17.6355C15.7826 17.3924 16.2931 17.0569 16.7286 16.6286C17.1641 16.2003 17.5094 15.6945 17.7646 15.1115C18.0198 14.5286 18.1473 13.9014 18.1473 13.2301ZM17.2105 13.2301C17.2105 13.7691 17.109 14.2767 16.9068 14.7537C16.7041 15.2307 16.4271 15.6458 16.0752 15.9991C15.7233 16.3526 15.3098 16.6332 14.8347 16.8407C14.3596 17.048 13.8535 17.1517 13.317 17.1517C12.7714 17.1517 12.2635 17.0503 11.7927 16.8473C11.3219 16.6441 10.9129 16.3635 10.565 16.0059C10.2176 15.6481 9.9428 15.2329 9.74034 14.7603C9.53813 14.2879 9.4369 13.7778 9.4369 13.2301C9.4369 12.6913 9.53813 12.1836 9.74034 11.7067C9.9428 11.2295 10.2176 10.8123 10.565 10.4545C10.9129 10.0966 11.3241 9.81638 11.7992 9.61313C12.2744 9.41014 12.7846 9.30851 13.3301 9.30851C13.8671 9.30851 14.3705 9.4122 14.8413 9.61977C15.312 9.82734 15.7233 10.1101 16.0752 10.4679C16.4271 10.8253 16.7041 11.2406 16.9068 11.7133C17.109 12.1857 17.2105 12.6913 17.2105 13.2301Z" fill="#ADB4CF"/>
</g>
</g>
</svg>
