<svg width="163" height="33" viewBox="0 0 163 33" fill="none" xmlns="http://www.w3.org/2000/svg">
<path fill-rule="evenodd" clip-rule="evenodd" d="M116.481 9.34064C122.919 9.34064 128.138 14.5796 128.138 21.0421C128.138 27.5048 122.919 32.7442 116.481 32.7442C110.044 32.7442 104.825 27.5048 104.825 21.0421C104.825 14.5796 110.044 9.34064 116.481 9.34064ZM121.772 15.7312C120.418 14.3722 118.547 13.5313 116.481 13.5313C114.415 13.5313 112.544 14.3722 111.191 15.7312C109.837 17.0901 109 18.9681 109 21.0421C109 23.1166 109.837 24.9946 111.191 26.3536C112.544 27.7125 114.415 28.5531 116.481 28.5531C118.547 28.5531 120.418 27.7125 121.772 26.3536C123.125 24.9946 123.963 23.1166 123.963 21.0421C123.963 18.9681 123.125 17.0901 121.772 15.7312Z" fill="white"/>
<path d="M152.946 32.7441H148.079V21.0003C148.079 20.0607 147.9 19.1681 147.541 18.3228C147.182 17.477 146.692 16.7486 146.067 16.1383C145.443 15.5275 144.718 15.0419 143.891 14.6817C143.065 14.3217 142.183 14.142 141.248 14.142C140.311 14.142 139.43 14.3217 138.604 14.6817C137.777 15.0419 137.051 15.5275 136.428 16.1383C135.804 16.7486 135.312 17.477 134.954 18.3228C134.595 19.1681 134.415 20.0607 134.415 21.0003V32.7441H129.549V21.0003C129.518 19.4028 129.806 17.8921 130.415 16.4674C131.023 15.0419 131.857 13.7972 132.918 12.7325C133.979 11.6678 135.227 10.8225 136.662 10.1957C138.096 9.56972 139.625 9.25616 141.248 9.25616C142.869 9.25616 144.398 9.56972 145.834 10.1957C147.269 10.8225 148.516 11.6678 149.577 12.7325C150.637 13.7972 151.472 15.0419 152.079 16.4674C152.689 17.8921 152.977 19.4028 152.946 21.0003V32.7441Z" fill="white"/>
<path fill-rule="evenodd" clip-rule="evenodd" d="M145.777 5.43457L145.821 8.17283C151.349 8.44854 154.888 13.1529 154.814 17.2998L157.518 17.2194C157.738 10.919 151.698 5.14607 145.777 5.43457Z" fill="white"/>
<path fill-rule="evenodd" clip-rule="evenodd" d="M146.033 0.744141L145.917 3.34454C154.459 3.29443 160.004 10.7417 159.752 17.037L162.182 16.9929C162.507 8.14343 154.788 0.839104 146.033 0.744141Z" fill="white"/>
<path d="M41.335 28.9717C40.6172 27.8412 39.8675 26.7387 39.086 25.6646C38.3052 24.5904 37.4638 23.5589 36.5626 22.5699C37.2805 22.3719 37.8722 22.0395 38.3366 21.5736C38.8012 21.1072 39.1353 20.5769 39.3396 19.9836C39.5437 19.39 39.6106 18.7716 39.5404 18.1285C39.4697 17.4854 39.2516 16.899 38.8856 16.3696C38.5197 15.8396 38.0022 15.4049 37.3334 15.0655C36.6648 14.7265 35.8376 14.557 34.8524 14.557H31.5791V29.3322L32.9727 29.1835V22.6335H34.2401C34.5075 22.6335 34.8101 22.7673 35.1478 23.0362C35.4858 23.3046 35.8376 23.6509 36.2036 24.0747C36.5696 24.4987 36.9359 24.9687 37.3018 25.4846C37.6678 26.0003 38.0128 26.5056 38.3366 27.0006C38.6606 27.495 38.949 27.9543 39.2023 28.3781C39.4555 28.8019 39.6531 29.1274 39.7937 29.3533L41.335 28.9717ZM32.9727 15.8708H34.8524C35.7953 15.8708 36.5626 16.1186 37.154 16.6129C37.7453 17.1075 38.0413 17.8496 38.0413 18.8389C38.0413 19.3053 37.9599 19.7079 37.7982 20.0472C37.636 20.3863 37.4145 20.6689 37.133 20.8948C36.8515 21.121 36.5203 21.2873 36.1402 21.3931C35.7605 21.4993 35.3594 21.5524 34.9369 21.5524H32.9727V15.8708Z" fill="white"/>
<path d="M52.5497 28.9717C51.8319 27.8412 51.0823 26.7387 50.3011 25.6646C49.5198 24.5904 48.6785 23.5589 47.7778 22.5699C48.4952 22.3719 49.0868 22.0395 49.551 21.5736C50.0158 21.1072 50.3499 20.5769 50.5543 19.9836C50.7583 19.39 50.8253 18.7716 50.755 18.1285C50.6844 17.4854 50.4662 16.899 50.1003 16.3696C49.7343 15.8396 49.217 15.4049 48.5481 15.0655C47.8797 14.7265 47.0525 14.557 46.0673 14.557H42.7939V29.3322L44.1875 29.1835V22.6335H45.4549C45.7223 22.6335 46.0249 22.7673 46.3626 23.0362C46.701 23.3046 47.0525 23.6509 47.4184 24.0747C47.7844 24.4987 48.1506 24.9687 48.5166 25.4846C48.8824 26.0003 49.2274 26.5056 49.551 27.0006C49.8749 27.495 50.1637 27.9543 50.417 28.3781C50.6703 28.8019 50.8677 29.1274 51.0086 29.3533L52.5497 28.9717ZM44.1875 15.8708H46.0673C47.0104 15.8708 47.7778 16.1186 48.3688 16.6129C48.96 17.1075 49.2557 17.8496 49.2557 18.8389C49.2557 19.3053 49.1745 19.7079 49.0129 20.0472C48.8506 20.3863 48.6294 20.6689 48.3477 20.8948C48.0659 21.121 47.7355 21.2873 47.3554 21.3931C46.9752 21.4993 46.5741 21.5524 46.1517 21.5524H44.1875V15.8708Z" fill="white"/>
<path d="M62.9401 27.9326H55.8662V22.4849H62.0955V21.1707H55.8662V15.871H62.6868L62.539 14.5568H54.4727V29.2683H62.8132L62.9401 27.9326Z" fill="white"/>
<path d="M75.1472 15.8706V14.5565H64.5891L64.3989 15.8918H69.1502V29.332L70.5438 29.1833V15.8706H75.1472Z" fill="white"/>
<path d="M91.7883 21.9122C91.7883 20.8385 91.5843 19.8349 91.1759 18.902C90.7675 17.9697 90.215 17.1607 89.5183 16.4751C88.8215 15.7894 88.0015 15.253 87.0583 14.8641C86.1148 14.4752 85.1155 14.2814 84.0597 14.2814C82.9897 14.2814 81.9867 14.4752 81.0509 14.8641C80.1144 15.253 79.2979 15.7894 78.6012 16.4751C77.9041 17.1607 77.3555 17.9697 76.954 18.902C76.5529 19.8349 76.3525 20.8385 76.3525 21.9122C76.3525 23.0007 76.5562 24.0074 76.9646 24.9332C77.3729 25.8589 77.9258 26.6646 78.6222 27.3499C79.319 28.0351 80.1357 28.572 81.0715 28.961C82.0078 29.3494 83.0108 29.544 84.0807 29.544C85.1365 29.544 86.1326 29.3494 87.0685 28.961C88.0048 28.572 88.8215 28.0351 89.5183 27.3499C90.215 26.6646 90.7675 25.8553 91.1759 24.9226C91.5843 23.99 91.7883 22.9864 91.7883 21.9122ZM90.2889 21.9122C90.2889 22.7747 90.1269 23.5869 89.8034 24.3501C89.4795 25.1133 89.036 25.7775 88.4729 26.3427C87.9099 26.9083 87.2482 27.3572 86.4881 27.6893C85.7278 28.021 84.9181 28.1869 84.0597 28.1869C83.1872 28.1869 82.3741 28.0246 81.6208 27.6998C80.8675 27.3746 80.2129 26.9258 79.6571 26.3537C79.1008 25.7811 78.661 25.1169 78.3371 24.3607C78.0136 23.6048 77.8516 22.7886 77.8516 21.9122C77.8516 21.0503 78.0136 20.238 78.3371 19.4749C78.661 18.7113 79.1008 18.0438 79.6571 17.4713C80.2129 16.8988 80.8711 16.4504 81.6313 16.1252C82.3911 15.8004 83.2079 15.6378 84.0807 15.6378C84.9398 15.6378 85.7453 15.8037 86.4985 16.1358C87.2518 16.4679 87.9099 16.9202 88.4729 17.4928C89.036 18.0646 89.4795 18.7292 89.8034 19.4854C90.1269 20.2413 90.2889 21.0503 90.2889 21.9122Z" fill="white"/>
<path d="M103.278 28.9717C102.56 27.8412 101.81 26.7387 101.029 25.6646C100.248 24.5904 99.4068 23.5589 98.506 22.5699C99.2234 22.3719 99.8151 22.0395 100.28 21.5736C100.745 21.1072 101.078 20.5769 101.283 19.9836C101.487 19.39 101.554 18.7716 101.484 18.1285C101.413 17.4854 101.195 16.899 100.829 16.3696C100.463 15.8396 99.9456 15.4049 99.2767 15.0655C98.6078 14.7265 97.781 14.557 96.7954 14.557H93.5225V29.3322L94.916 29.1835V22.6335H96.1831C96.4509 22.6335 96.7534 22.7673 97.0908 23.0362C97.4292 23.3046 97.781 23.6509 98.1469 24.0747C98.5129 24.4987 98.8792 24.9687 99.2452 25.4846C99.6107 26.0003 99.956 26.5056 100.28 27.0006C100.604 27.495 100.892 27.9543 101.145 28.3781C101.399 28.8019 101.596 29.1274 101.737 29.3533L103.278 28.9717ZM94.916 15.8708H96.7954C97.7386 15.8708 98.506 16.1186 99.097 16.6129C99.6883 17.1075 99.984 17.8496 99.984 18.8389C99.984 19.3053 99.9031 19.7079 99.7416 20.0472C99.5789 20.3863 99.3579 20.6689 99.0759 20.8948C98.7944 21.121 98.4636 21.2873 98.0836 21.3931C97.7034 21.4993 97.3024 21.5524 96.8798 21.5524H94.916V15.8708Z" fill="white"/>
<path d="M12.5703 26.8517C11.937 27.2616 11.2685 27.5868 10.5644 27.8268C9.86044 28.067 9.13542 28.187 8.38934 28.187C7.37591 28.187 6.48891 28.0073 5.72877 27.6468C4.96851 27.2863 4.3348 26.8128 3.82824 26.2264C3.32137 25.6397 2.94494 24.9722 2.69854 24.2229C2.45173 23.474 2.32889 22.7108 2.32889 21.9339C2.32889 21.1424 2.45574 20.372 2.70902 19.623C2.9623 18.874 3.34242 18.2062 3.8497 17.6199C4.35616 17.0331 4.98597 16.56 5.73924 16.1996C6.49251 15.8394 7.36903 15.659 8.36828 15.659C9.11436 15.659 9.8325 15.779 10.5221 16.0191C11.2119 16.2599 11.8735 16.5636 12.5069 16.9309L12.3805 15.2775C11.8033 14.9523 11.1805 14.7049 10.5115 14.5354C9.84308 14.3659 9.17784 14.2811 8.51619 14.2811C7.45993 14.2811 6.46427 14.475 5.52797 14.8639C4.59167 15.2527 3.77534 15.7896 3.07857 16.4753C2.38189 17.1604 1.82932 17.9697 1.42094 18.902C1.01298 19.8347 0.808594 20.8386 0.808594 21.9124C0.808594 23.0433 1.00241 24.0745 1.389 25.0075C1.77642 25.9401 2.31153 26.7422 2.99414 27.4133C3.67685 28.0844 4.48989 28.6075 5.43307 28.9822C6.37655 29.3568 7.40415 29.5438 8.51619 29.5438C9.19191 29.5438 9.86763 29.4488 10.5435 29.2579C11.2188 29.0665 11.8526 28.8089 12.4435 28.4838L12.5703 26.8517Z" fill="white"/>
<path d="M29.8454 21.9122C29.8454 20.8385 29.6414 19.8349 29.233 18.902C28.8247 17.9697 28.2722 17.1607 27.5754 16.4751C26.8786 15.7894 26.0586 15.253 25.1155 14.8641C24.172 14.4752 23.1727 14.2814 22.1168 14.2814C21.0468 14.2814 20.0439 14.4752 19.1076 14.8641C18.1714 15.253 17.3551 15.7894 16.6584 16.4751C15.9612 17.1607 15.4126 17.9697 15.0111 18.902C14.6101 19.8349 14.4097 20.8385 14.4097 21.9122C14.4097 23.0007 14.6133 24.0074 15.0217 24.9332C15.43 25.8589 15.9826 26.6646 16.6793 27.3499C17.376 28.0351 18.1927 28.572 19.1286 28.961C20.0649 29.3494 21.0679 29.544 22.1378 29.544C23.1937 29.544 24.1897 29.3494 25.1256 28.961C26.0619 28.572 26.8786 28.0351 27.5754 27.3499C28.2722 26.6646 28.8247 25.8553 29.233 24.9226C29.6414 23.99 29.8454 22.9864 29.8454 21.9122ZM28.3465 21.9122C28.3465 22.7747 28.1841 23.5869 27.8605 24.3501C27.5363 25.1133 27.0931 25.7775 26.53 26.3427C25.967 26.9083 25.3053 27.3572 24.5452 27.6893C23.785 28.021 22.9752 28.1869 22.1168 28.1869C21.2439 28.1869 20.4312 28.0246 19.6779 27.6998C18.9247 27.3746 18.2703 26.9258 17.7137 26.3537C17.1579 25.7811 16.7182 25.1169 16.3942 24.3607C16.0707 23.6048 15.9087 22.7886 15.9087 21.9122C15.9087 21.0503 16.0707 20.238 16.3942 19.4749C16.7182 18.7113 17.1579 18.0438 17.7137 17.4713C18.2703 16.8988 18.9282 16.4504 19.6884 16.1252C20.4486 15.8004 21.265 15.6378 22.1378 15.6378C22.997 15.6378 23.8024 15.8037 24.5557 16.1358C25.3089 16.4679 25.967 16.9202 26.53 17.4928C27.0931 18.0646 27.5363 18.7292 27.8605 19.4854C28.1841 20.2413 28.3465 21.0503 28.3465 21.9122Z" fill="white"/>
</svg>
