<svg width="37" height="36" viewBox="0 0 37 36" fill="none" xmlns="http://www.w3.org/2000/svg">
<path d="M34.8765 21.375C34.8765 21.5988 34.7877 21.8134 34.6294 21.9716C34.4712 22.1299 34.2566 22.2188 34.0328 22.2188H31.5015V24.75C31.5015 24.9738 31.4127 25.1884 31.2544 25.3466C31.0962 25.5049 30.8816 25.5938 30.6578 25.5938C30.434 25.5938 30.2194 25.5049 30.0612 25.3466C29.9029 25.1884 29.814 24.9738 29.814 24.75V22.2188H27.2828C27.059 22.2188 26.8444 22.1299 26.6862 21.9716C26.5279 21.8134 26.439 21.5988 26.439 21.375C26.439 21.1512 26.5279 20.9366 26.6862 20.7784C26.8444 20.6202 27.059 20.5313 27.2828 20.5313H29.814V18C29.814 17.7762 29.9029 17.5616 30.0612 17.4034C30.2194 17.2452 30.434 17.1563 30.6578 17.1563C30.8816 17.1563 31.0962 17.2452 31.2544 17.4034C31.4127 17.5616 31.5015 17.7762 31.5015 18V20.5313H34.0328C34.2566 20.5313 34.4712 20.6202 34.6294 20.7784C34.7877 20.9366 34.8765 21.1512 34.8765 21.375ZM8.1578 9.84377H10.689V12.375C10.689 12.5988 10.7779 12.8134 10.9362 12.9716C11.0944 13.1299 11.309 13.2188 11.5328 13.2188C11.7566 13.2188 11.9712 13.1299 12.1294 12.9716C12.2877 12.8134 12.3765 12.5988 12.3765 12.375V9.84377H14.9078C15.1316 9.84377 15.3462 9.75487 15.5044 9.59664C15.6627 9.43841 15.7515 9.2238 15.7515 9.00002C15.7515 8.77624 15.6627 8.56163 15.5044 8.4034C15.3462 8.24516 15.1316 8.15627 14.9078 8.15627H12.3765V5.62502C12.3765 5.40124 12.2877 5.18663 12.1294 5.0284C11.9712 4.87016 11.7566 4.78127 11.5328 4.78127C11.309 4.78127 11.0944 4.87016 10.9362 5.0284C10.7779 5.18663 10.689 5.40124 10.689 5.62502V8.15627H8.1578C7.93402 8.15627 7.71941 8.24516 7.56118 8.4034C7.40294 8.56163 7.31405 8.77624 7.31405 9.00002C7.31405 9.2238 7.40294 9.43841 7.56118 9.59664C7.71941 9.75487 7.93402 9.84377 8.1578 9.84377ZM26.1578 27.2813H24.7515V25.875C24.7515 25.6512 24.6627 25.4366 24.5044 25.2784C24.3462 25.1202 24.1316 25.0313 23.9078 25.0313C23.684 25.0313 23.4694 25.1202 23.3112 25.2784C23.1529 25.4366 23.064 25.6512 23.064 25.875V27.2813H21.6578C21.434 27.2813 21.2194 27.3702 21.0612 27.5284C20.9029 27.6866 20.814 27.9012 20.814 28.125C20.814 28.3488 20.9029 28.5634 21.0612 28.7216C21.2194 28.8799 21.434 28.9688 21.6578 28.9688H23.064V30.375C23.064 30.5988 23.1529 30.8134 23.3112 30.9716C23.4694 31.1299 23.684 31.2188 23.9078 31.2188C24.1316 31.2188 24.3462 31.1299 24.5044 30.9716C24.6627 30.8134 24.7515 30.5988 24.7515 30.375V28.9688H26.1578C26.3816 28.9688 26.5962 28.8799 26.7544 28.7216C26.9127 28.5634 27.0015 28.3488 27.0015 28.125C27.0015 27.9012 26.9127 27.6866 26.7544 27.5284C26.5962 27.3702 26.3816 27.2813 26.1578 27.2813ZM30.925 11.0517L11.3331 30.6422C11.1503 30.825 10.9332 30.9701 10.6944 31.069C10.4555 31.168 10.1995 31.2189 9.94092 31.2189C9.68237 31.2189 9.42634 31.168 9.18747 31.069C8.9486 30.9701 8.73155 30.825 8.54874 30.6422L5.6392 27.7327C5.45637 27.5499 5.31133 27.3328 5.21238 27.0939C5.11343 26.8551 5.0625 26.599 5.0625 26.3405C5.0625 26.0819 5.11343 25.8259 5.21238 25.587C5.31133 25.3482 5.45637 25.1311 5.6392 24.9483L25.2311 5.35783C25.4139 5.175 25.6309 5.02996 25.8698 4.93101C26.1087 4.83206 26.3647 4.78113 26.6233 4.78113C26.8818 4.78113 27.1378 4.83206 27.3767 4.93101C27.6156 5.02996 27.8326 5.175 28.0155 5.35783L30.925 8.26736C31.1078 8.45018 31.2529 8.66722 31.3518 8.9061C31.4508 9.14497 31.5017 9.40099 31.5017 9.65955C31.5017 9.91811 31.4508 10.1741 31.3518 10.413C31.2529 10.6519 31.1078 10.8689 30.925 11.0517ZM23.8389 15.75L20.5328 12.4439L6.83311 26.1422C6.80696 26.1683 6.78622 26.1993 6.77206 26.2335C6.75791 26.2676 6.75062 26.3042 6.75062 26.3412C6.75062 26.3782 6.75791 26.4148 6.77206 26.4489C6.78622 26.483 6.80696 26.5141 6.83311 26.5402L9.74264 29.4483C9.79534 29.5007 9.86662 29.5301 9.94092 29.5301C10.0152 29.5301 10.0865 29.5007 10.1392 29.4483L23.8389 15.75ZM29.7311 9.45986L26.823 6.55174C26.7968 6.52559 26.7658 6.50484 26.7317 6.49069C26.6975 6.47654 26.6609 6.46925 26.624 6.46925C26.587 6.46925 26.5504 6.47654 26.5163 6.49069C26.4821 6.50484 26.4511 6.52559 26.425 6.55174L21.7253 11.25L25.0328 14.5575L29.7311 9.85783C29.7572 9.83171 29.778 9.80069 29.7921 9.76655C29.8063 9.73241 29.8136 9.69581 29.8136 9.65885C29.8136 9.62189 29.8063 9.58529 29.7921 9.55115C29.778 9.517 29.7572 9.48598 29.7311 9.45986Z" fill="#00214C"/>
</svg>
