<svg width="14" height="15" viewBox="0 0 14 15" fill="none" xmlns="http://www.w3.org/2000/svg">
<g id="MapPinLine">
<path id="Vector" d="M10.9375 12.948H8.78992C9.0732 12.6746 9.37781 12.3623 9.68297 12.0112C11.2191 10.2448 12.0312 8.37448 12.0312 6.60425C12.0312 5.26988 11.5012 3.99016 10.5576 3.04662C9.61409 2.10307 8.33437 1.573 7 1.573C5.66563 1.573 4.38591 2.10307 3.44237 3.04662C2.49883 3.99016 1.96875 5.26988 1.96875 6.60425C1.96875 9.33862 3.83469 11.6322 5.20516 12.948H3.0625C2.88845 12.948 2.72153 13.0171 2.59846 13.1402C2.47539 13.2633 2.40625 13.4302 2.40625 13.6042C2.40625 13.7783 2.47539 13.9452 2.59846 14.0683C2.72153 14.1914 2.88845 14.2605 3.0625 14.2605H10.9375C11.1115 14.2605 11.2785 14.1914 11.4015 14.0683C11.5246 13.9452 11.5938 13.7783 11.5938 13.6042C11.5938 13.4302 11.5246 13.2633 11.4015 13.1402C11.2785 13.0171 11.1115 12.948 10.9375 12.948ZM3.28125 6.60425C3.28125 5.61797 3.67305 4.6721 4.37045 3.97469C5.06785 3.27729 6.01373 2.8855 7 2.8855C7.98627 2.8855 8.93215 3.27729 9.62955 3.97469C10.327 4.6721 10.7188 5.61797 10.7188 6.60425C10.7188 8.42589 9.625 10.0698 8.71172 11.1275C8.19029 11.7264 7.61754 12.2787 7 12.7779C6.38246 12.2787 5.80971 11.7264 5.28828 11.1275C4.375 10.0698 3.28125 8.42589 3.28125 6.60425ZM7 9.0105C7.47591 9.0105 7.94113 8.86937 8.33684 8.60497C8.73255 8.34057 9.04096 7.96477 9.22308 7.52508C9.40521 7.0854 9.45286 6.60158 9.36001 6.13481C9.26717 5.66805 9.038 5.23929 8.70148 4.90277C8.36496 4.56625 7.9362 4.33708 7.46944 4.24423C7.00267 4.15139 6.51885 4.19904 6.07917 4.38116C5.63948 4.56329 5.26368 4.8717 4.99928 5.26741C4.73487 5.66311 4.59375 6.12834 4.59375 6.60425C4.59447 7.2422 4.84822 7.85382 5.29932 8.30492C5.75043 8.75603 6.36204 9.00977 7 9.0105ZM7 5.5105C7.21632 5.5105 7.42779 5.57465 7.60766 5.69483C7.78752 5.81501 7.92771 5.98583 8.01049 6.18569C8.09328 6.38554 8.11494 6.60546 8.07273 6.81763C8.03053 7.0298 7.92636 7.22468 7.7734 7.37765C7.62043 7.53061 7.42555 7.63478 7.21338 7.67698C7.00121 7.71918 6.7813 7.69752 6.58144 7.61474C6.38158 7.53196 6.21076 7.39177 6.09058 7.2119C5.9704 7.03204 5.90625 6.82057 5.90625 6.60425C5.90625 6.31417 6.02148 6.03597 6.2266 5.83085C6.43172 5.62573 6.70992 5.5105 7 5.5105Z" fill="#00214C"/>
</g>
</svg>
