<svg width="25" height="25" viewBox="0 0 25 25" fill="none" xmlns="http://www.w3.org/2000/svg">
<g id="PaperPlaneTilt">
<path id="Vector" d="M22.2851 2.90531C22.0965 2.71681 21.861 2.582 21.603 2.51476C21.3449 2.44753 21.0736 2.45031 20.817 2.52281H20.8029L2.80857 7.98281C2.51565 8.06705 2.25535 8.23852 2.06232 8.47439C1.86929 8.71026 1.75269 8.99934 1.72805 9.30313C1.70342 9.60692 1.77191 9.91101 1.92441 10.1749C2.07691 10.4388 2.30618 10.65 2.5817 10.7803L10.6086 14.5819L14.4101 22.6087C14.5302 22.8658 14.7212 23.0832 14.9608 23.2351C15.2003 23.3871 15.4783 23.4674 15.762 23.4666C15.8051 23.4666 15.8483 23.4647 15.8914 23.4609C16.1941 23.4364 16.4821 23.3199 16.7167 23.127C16.9513 22.9342 17.1213 22.6741 17.2039 22.3819L22.6601 4.3875C22.6601 4.38281 22.6601 4.37812 22.6601 4.37343C22.7336 4.11746 22.7375 3.84655 22.6716 3.58854C22.6057 3.33052 22.4723 3.0947 22.2851 2.90531ZM15.7704 21.9525L15.7658 21.9656L12.0758 14.1759L16.5045 9.74625C16.6392 9.60445 16.7132 9.41564 16.7107 9.22007C16.7082 9.02449 16.6294 8.83764 16.4911 8.69934C16.3528 8.56104 16.1659 8.48223 15.9704 8.47973C15.7748 8.47722 15.586 8.55122 15.4442 8.68593L11.0145 13.1147L3.22388 9.42468H3.23701L21.2239 3.96656L15.7704 21.9525Z" fill="white"/>
</g>
</svg>
