<svg width="17" height="17" viewBox="0 0 17 17" fill="none" xmlns="http://www.w3.org/2000/svg">
<g id="PencilSimpleLine">
<path id="Vector" d="M14.4516 5.07022L11.6585 2.27772C11.5657 2.18483 11.4554 2.11115 11.3341 2.06088C11.2127 2.01061 11.0827 1.98474 10.9513 1.98474C10.82 1.98474 10.6899 2.01061 10.5686 2.06088C10.4473 2.11115 10.337 2.18483 10.2441 2.27772L2.53727 9.98459C2.44401 10.0771 2.37007 10.1873 2.31975 10.3086C2.26942 10.43 2.24373 10.5601 2.24415 10.6915V13.4846C2.24415 13.7498 2.3495 14.0042 2.53704 14.1917C2.72458 14.3792 2.97893 14.4846 3.24415 14.4846H13.7441C13.8768 14.4846 14.0039 14.4319 14.0977 14.3381C14.1915 14.2444 14.2441 14.1172 14.2441 13.9846C14.2441 13.852 14.1915 13.7248 14.0977 13.631C14.0039 13.5373 13.8768 13.4846 13.7441 13.4846H7.45165L14.4516 6.48459C14.5445 6.39173 14.6182 6.28148 14.6685 6.16014C14.7187 6.0388 14.7446 5.90874 14.7446 5.7774C14.7446 5.64606 14.7187 5.51601 14.6685 5.39467C14.6182 5.27333 14.5445 5.16308 14.4516 5.07022ZM12.2441 7.27772L9.45165 4.48459L10.9516 2.98459L13.7441 5.77772L12.2441 7.27772Z" fill="#00214C"/>
</g>
</svg>
