<svg width="25" height="25" viewBox="0 0 25 25" fill="none" xmlns="http://www.w3.org/2000/svg">
<g id="PhoneCall">
<path id="Vector" d="M14.5937 4.02126C14.6191 3.92608 14.6631 3.83685 14.7231 3.75866C14.783 3.68047 14.8578 3.61487 14.9431 3.56559C15.0284 3.51631 15.1226 3.48433 15.2203 3.47147C15.318 3.45861 15.4173 3.46512 15.5124 3.49064C16.9028 3.8534 18.1713 4.58024 19.1874 5.5963C20.2035 6.61235 20.9303 7.88089 21.2931 9.27126C21.3186 9.36643 21.3251 9.46569 21.3122 9.56338C21.2994 9.66106 21.2674 9.75526 21.2181 9.84058C21.1688 9.9259 21.1032 10.0007 21.025 10.0606C20.9468 10.1206 20.8576 10.1646 20.7624 10.19C20.6991 10.2067 20.6339 10.2152 20.5684 10.2153C20.4031 10.2153 20.2425 10.1607 20.1114 10.06C19.9804 9.95932 19.8862 9.81815 19.8437 9.65845C19.5478 8.52344 18.9546 7.48786 18.1252 6.65847C17.2958 5.82908 16.2603 5.23588 15.1252 4.94001C15.03 4.91465 14.9406 4.87076 14.8624 4.81085C14.7841 4.75094 14.7184 4.67617 14.669 4.59084C14.6196 4.50551 14.5876 4.41128 14.5746 4.31355C14.5617 4.21582 14.5682 4.11649 14.5937 4.02126ZM14.3752 7.94001C15.6681 8.28501 16.4987 9.11564 16.8437 10.4084C16.8862 10.5681 16.9804 10.7093 17.1114 10.81C17.2425 10.9107 17.4031 10.9653 17.5684 10.9653C17.6339 10.9652 17.6991 10.9567 17.7624 10.94C17.8576 10.9146 17.9468 10.8706 18.025 10.8106C18.1032 10.7507 18.1688 10.6759 18.2181 10.5906C18.2674 10.5053 18.2994 10.4111 18.3122 10.3134C18.3251 10.2157 18.3186 10.1164 18.2931 10.0213C17.8131 8.22501 16.5587 6.97064 14.7624 6.49064C14.6673 6.46521 14.568 6.45878 14.4704 6.47172C14.3727 6.48465 14.2786 6.51669 14.1933 6.566C14.108 6.61532 14.0333 6.68095 13.9734 6.75914C13.9135 6.83734 13.8696 6.92656 13.8441 7.02173C13.8187 7.1169 13.8123 7.21614 13.8252 7.31379C13.8382 7.41145 13.8702 7.50559 13.9195 7.59086C13.9688 7.67614 14.0345 7.75086 14.1127 7.81076C14.1908 7.87067 14.2801 7.91459 14.3752 7.94001ZM22.0571 16.8791C21.89 18.1494 21.2661 19.3155 20.302 20.1594C19.338 21.0034 18.0997 21.4676 16.8184 21.4653C9.37462 21.4653 3.31837 15.4091 3.31837 7.96532C3.31607 6.68404 3.78026 5.44572 4.62424 4.48166C5.46822 3.51761 6.63428 2.89374 7.90462 2.72658C8.22585 2.68735 8.55116 2.75307 8.83198 2.91392C9.1128 3.07478 9.33406 3.32214 9.46274 3.61908L11.4427 8.03939V8.05064C11.5413 8.27794 11.582 8.5261 11.5612 8.77296C11.5404 9.01982 11.4588 9.25769 11.3237 9.46532C11.3068 9.49064 11.289 9.51407 11.2702 9.53751L9.31837 11.8513C10.0206 13.2781 11.5131 14.7575 12.9587 15.4616L15.2406 13.52C15.263 13.5012 15.2864 13.4836 15.3109 13.4675C15.5183 13.3291 15.757 13.2447 16.0053 13.2218C16.2537 13.1988 16.5038 13.2382 16.7331 13.3363L16.7452 13.3419L21.1618 15.3209C21.4593 15.4492 21.7072 15.6702 21.8686 15.9511C22.03 16.232 22.0961 16.5575 22.0571 16.8791ZM20.5684 16.6916C20.5684 16.6916 20.5618 16.6916 20.5581 16.6916L16.1518 14.7181L13.869 16.6597C13.8468 16.6785 13.8237 16.696 13.7996 16.7122C13.5838 16.8562 13.3342 16.9418 13.0754 16.9605C12.8166 16.9792 12.5574 16.9305 12.3231 16.8191C10.5671 15.9706 8.81681 14.2334 7.96743 12.4963C7.85496 12.2636 7.80449 12.0059 7.82091 11.748C7.83734 11.4901 7.9201 11.2409 8.06118 11.0244C8.07708 10.999 8.09495 10.9748 8.11462 10.9522L10.0684 8.63564L8.09962 4.22939C8.09925 4.22565 8.09925 4.22188 8.09962 4.21814C7.19048 4.33673 6.35575 4.78267 5.75175 5.47243C5.14775 6.1622 4.81591 7.04849 4.81837 7.96532C4.82184 11.1469 6.08724 14.1971 8.33692 16.4468C10.5866 18.6965 13.6368 19.9618 16.8184 19.9653C17.7346 19.9685 18.6207 19.6378 19.3109 19.0351C20.001 18.4324 20.4481 17.599 20.5684 16.6906V16.6916Z" fill="#00214C"/>
</g>
</svg>
