<svg width="33" height="32" viewBox="0 0 33 32" fill="none" xmlns="http://www.w3.org/2000/svg">
<g id="Phone">
<path id="Vector" d="M27.9799 19.8075L22.0911 17.1687L22.0749 17.1612C21.7691 17.0305 21.4357 16.978 21.1046 17.0086C20.7735 17.0391 20.4552 17.1517 20.1786 17.3362C20.146 17.3578 20.1147 17.3811 20.0849 17.4062L17.0424 20C15.1149 19.0637 13.1249 17.0887 12.1886 15.1862L14.7861 12.0975C14.8111 12.0662 14.8349 12.035 14.8574 12.0012C15.0379 11.7254 15.1474 11.4091 15.1762 11.0807C15.205 10.7523 15.1521 10.4218 15.0224 10.1187V10.1037L12.3761 4.20499C12.2045 3.80907 11.9095 3.47926 11.5351 3.26479C11.1607 3.05032 10.7269 2.96269 10.2986 3.01499C8.60482 3.23787 7.05008 4.0697 5.92477 5.35511C4.79946 6.64052 4.18054 8.2916 4.18361 9.99999C4.18361 19.925 12.2586 28 22.1836 28C23.892 28.0031 25.5431 27.3841 26.8285 26.2588C28.1139 25.1335 28.9457 23.5788 29.1686 21.885C29.221 21.4568 29.1336 21.0232 28.9193 20.6488C28.7051 20.2744 28.3755 19.9793 27.9799 19.8075ZM22.1836 26C17.9416 25.9954 13.8746 24.3082 10.875 21.3086C7.87543 18.309 6.18824 14.242 6.1836 9.99999C6.1789 8.77935 6.61867 7.59874 7.42078 6.67862C8.22288 5.75851 9.33248 5.16182 10.5424 4.99999C10.5419 5.00498 10.5419 5.01 10.5424 5.01499L13.1674 10.89L10.5836 13.9825C10.5574 14.0127 10.5336 14.0448 10.5124 14.0787C10.3242 14.3674 10.2139 14.6997 10.192 15.0436C10.1701 15.3874 10.2374 15.7311 10.3874 16.0412C11.5199 18.3575 13.8536 20.6737 16.1949 21.805C16.5073 21.9536 16.853 22.0185 17.198 21.9935C17.5431 21.9686 17.8758 21.8545 18.1636 21.6625C18.1957 21.6409 18.2266 21.6175 18.2561 21.5925L21.2949 19L27.1699 21.6312C27.1699 21.6312 27.1799 21.6312 27.1836 21.6312C27.0237 22.8428 26.4279 23.9547 25.5077 24.7588C24.5874 25.5628 23.4057 26.0041 22.1836 26Z" fill="#166BEF"/>
</g>
</svg>
