<svg width="21" height="21" viewBox="0 0 21 21" fill="none" xmlns="http://www.w3.org/2000/svg">
<g id="Phone">
<path id="Vector" d="M17.8727 12.8797L14.1922 11.2304L14.182 11.2257C13.991 11.144 13.7825 11.1112 13.5756 11.1303C13.3687 11.1494 13.1698 11.2198 12.9969 11.3351C12.9765 11.3486 12.957 11.3632 12.9383 11.3789L11.0367 13C9.83204 12.4148 8.58829 11.1804 8.00313 9.99137L9.62657 8.0609C9.64219 8.04137 9.65704 8.02184 9.6711 8.00075C9.78394 7.82833 9.85239 7.63068 9.87039 7.42541C9.88838 7.22014 9.85534 7.0136 9.77423 6.82418V6.81481L8.12032 3.12809C8.01309 2.88064 7.8287 2.67451 7.59468 2.54046C7.36067 2.40642 7.08958 2.35165 6.82188 2.38434C5.76326 2.52364 4.79155 3.04353 4.08824 3.84691C3.38492 4.65029 2.99809 5.68222 3.00001 6.74996C3.00001 12.9531 8.04688 18 14.25 18C15.3177 18.0019 16.3497 17.6151 17.1531 16.9117C17.9564 16.2084 18.4763 15.2367 18.6156 14.1781C18.6484 13.9105 18.5937 13.6395 18.4598 13.4055C18.3259 13.1715 18.12 12.987 17.8727 12.8797ZM14.25 16.75C11.5987 16.7471 9.05687 15.6926 7.18214 13.8178C5.3074 11.9431 4.2529 9.40124 4.25001 6.74996C4.24707 5.98706 4.52192 5.24918 5.02324 4.67411C5.52456 4.09904 6.21806 3.72611 6.97423 3.62496C6.97392 3.62808 6.97392 3.63122 6.97423 3.63434L8.61485 7.30621L7.00001 9.23903C6.98362 9.25789 6.96873 9.278 6.95548 9.29918C6.83791 9.47959 6.76894 9.6873 6.75525 9.9022C6.74157 10.1171 6.78362 10.3319 6.87735 10.5257C7.58516 11.9734 9.04376 13.4211 10.507 14.1281C10.7023 14.2209 10.9184 14.2615 11.134 14.2459C11.3497 14.2303 11.5576 14.159 11.7375 14.039C11.7576 14.0255 11.7769 14.0109 11.7953 13.9953L13.6945 12.375L17.3664 14.0195C17.3664 14.0195 17.3727 14.0195 17.375 14.0195C17.2751 14.7767 16.9027 15.4716 16.3275 15.9742C15.7524 16.4767 15.0138 16.7525 14.25 16.75Z" fill="#00214C"/>
</g>
</svg>
