<svg width="135" height="135" viewBox="0 0 135 135" fill="none" xmlns="http://www.w3.org/2000/svg">
<g id="PlayCircle">
<path id="Vector" d="M67.165 12.8427C56.3858 12.8427 45.8486 16.0391 36.8859 22.0277C27.9233 28.0164 20.9378 36.5282 16.8127 46.487C12.6877 56.4457 11.6084 67.404 13.7113 77.9762C15.8142 88.5483 21.0049 98.2595 28.627 105.882C36.2491 113.504 45.9603 118.694 56.5324 120.797C67.1046 122.9 78.0629 121.821 88.0216 117.696C97.9804 113.571 106.492 106.585 112.481 97.6227C118.47 88.66 121.666 78.1228 121.666 67.3436C121.648 52.8946 115.9 39.0425 105.683 28.8255C95.4661 18.6085 81.614 12.8607 67.165 12.8427ZM86.2613 70.8337L61.107 87.6033C60.4171 88.0605 59.6079 88.3047 58.7803 88.3055C57.6684 88.3055 56.602 87.8638 55.8158 87.0776C55.0296 86.2913 54.5879 85.225 54.5879 84.1131V50.5741C54.5874 49.8149 54.793 49.0698 55.1829 48.4184C55.5728 47.767 56.1322 47.2336 56.8015 46.8753C57.4708 46.517 58.2248 46.3471 58.9831 46.3839C59.7414 46.4206 60.4755 46.6626 61.107 47.0839L86.2613 63.8534C86.8364 64.2361 87.3079 64.755 87.6341 65.3639C87.9603 65.9728 88.131 66.6528 88.131 67.3436C88.131 68.0343 87.9603 68.7144 87.6341 69.3233C87.3079 69.9322 86.8364 70.451 86.2613 70.8337Z" fill="#00214C"/>
</g>
</svg>
