<svg width="19" height="18" viewBox="0 0 19 18" fill="none" xmlns="http://www.w3.org/2000/svg">
<path d="M18.293 9C18.293 9.19891 18.214 9.38968 18.0733 9.53033C17.9326 9.67098 17.7419 9.75 17.543 9.75H10.043V17.25C10.043 17.4489 9.96395 17.6397 9.8233 17.7803C9.68265 17.921 9.49188 18 9.29297 18C9.09406 18 8.90329 17.921 8.76264 17.7803C8.62199 17.6397 8.54297 17.4489 8.54297 17.25V9.75H1.04297C0.844056 9.75 0.653291 9.67098 0.512639 9.53033C0.371987 9.38968 0.292969 9.19891 0.292969 9C0.292969 8.80109 0.371987 8.61032 0.512639 8.46967C0.653291 8.32902 0.844056 8.25 1.04297 8.25H8.54297V0.75C8.54297 0.551088 8.62199 0.360322 8.76264 0.21967C8.90329 0.0790178 9.09406 0 9.29297 0C9.49188 0 9.68265 0.0790178 9.8233 0.21967C9.96395 0.360322 10.043 0.551088 10.043 0.75V8.25H17.543C17.7419 8.25 17.9326 8.32902 18.0733 8.46967C18.214 8.61032 18.293 8.80109 18.293 9Z" fill="white"/>
</svg>
