<svg width="21" height="21" viewBox="0 0 21 21" fill="none" xmlns="http://www.w3.org/2000/svg">
<g id="RoadHorizon">
<path id="Vector" d="M18.9311 16.0469C18.8593 16.0873 18.7803 16.1132 18.6985 16.123C18.6167 16.1328 18.5338 16.1263 18.4545 16.104C18.3752 16.0816 18.3011 16.0438 18.2365 15.9927C18.1719 15.9416 18.118 15.8782 18.078 15.8062L12.6342 6.125H11.1248V6.75C11.1248 6.91576 11.059 7.07473 10.9418 7.19194C10.8246 7.30915 10.6656 7.375 10.4998 7.375C10.3341 7.375 10.1751 7.30915 10.0579 7.19194C9.94068 7.07473 9.87483 6.91576 9.87483 6.75V6.125H8.36546L2.92171 15.8062C2.84049 15.9513 2.70497 16.0581 2.54498 16.1033C2.38499 16.1484 2.21362 16.1281 2.06858 16.0469C1.92354 15.9657 1.81671 15.8301 1.77158 15.6701C1.72646 15.5102 1.74674 15.3388 1.82796 15.1938L6.93108 6.125H2.37483C2.20907 6.125 2.0501 6.05915 1.93289 5.94194C1.81568 5.82473 1.74983 5.66576 1.74983 5.5C1.74983 5.33424 1.81568 5.17527 1.93289 5.05806C2.0501 4.94085 2.20907 4.875 2.37483 4.875H18.6248C18.7906 4.875 18.9496 4.94085 19.0668 5.05806C19.184 5.17527 19.2498 5.33424 19.2498 5.5C19.2498 5.66576 19.184 5.82473 19.0668 5.94194C18.9496 6.05915 18.7906 6.125 18.6248 6.125H14.0686L19.1717 15.1938C19.2122 15.2655 19.238 15.3446 19.2478 15.4263C19.2576 15.5081 19.2512 15.5911 19.2288 15.6703C19.2064 15.7496 19.1686 15.8237 19.1175 15.8883C19.0664 15.953 19.0031 16.0068 18.9311 16.0469ZM10.4998 9.25C10.3341 9.25 10.1751 9.31585 10.0579 9.43306C9.94068 9.55027 9.87483 9.70924 9.87483 9.875V11.125C9.87483 11.2908 9.94068 11.4497 10.0579 11.5669C10.1751 11.6842 10.3341 11.75 10.4998 11.75C10.6656 11.75 10.8246 11.6842 10.9418 11.5669C11.059 11.4497 11.1248 11.2908 11.1248 11.125V9.875C11.1248 9.70924 11.059 9.55027 10.9418 9.43306C10.8246 9.31585 10.6656 9.25 10.4998 9.25ZM10.4998 13.625C10.3341 13.625 10.1751 13.6908 10.0579 13.8081C9.94068 13.9253 9.87483 14.0842 9.87483 14.25V15.5C9.87483 15.6658 9.94068 15.8247 10.0579 15.9419C10.1751 16.0592 10.3341 16.125 10.4998 16.125C10.6656 16.125 10.8246 16.0592 10.9418 15.9419C11.059 15.8247 11.1248 15.6658 11.1248 15.5V14.25C11.1248 14.0842 11.059 13.9253 10.9418 13.8081C10.8246 13.6908 10.6656 13.625 10.4998 13.625Z" fill="#00214C"/>
</g>
</svg>
