<svg width="17" height="17" viewBox="0 0 17 17" fill="none" xmlns="http://www.w3.org/2000/svg">
<g id="Trash">
<path id="Vector" d="M13.7441 3.48462H11.2441V2.98462C11.2441 2.58679 11.0861 2.20526 10.8048 1.92396C10.5235 1.64265 10.142 1.48462 9.74414 1.48462H6.74414C6.34632 1.48462 5.96478 1.64265 5.68348 1.92396C5.40218 2.20526 5.24414 2.58679 5.24414 2.98462V3.48462H2.74414C2.61153 3.48462 2.48436 3.5373 2.39059 3.63107C2.29682 3.72483 2.24414 3.85201 2.24414 3.98462C2.24414 4.11723 2.29682 4.2444 2.39059 4.33817C2.48436 4.43194 2.61153 4.48462 2.74414 4.48462H3.24414V13.4846C3.24414 13.7498 3.3495 14.0042 3.53703 14.1917C3.72457 14.3793 3.97892 14.4846 4.24414 14.4846H12.2441C12.5094 14.4846 12.7637 14.3793 12.9512 14.1917C13.1388 14.0042 13.2441 13.7498 13.2441 13.4846V4.48462H13.7441C13.8767 4.48462 14.0039 4.43194 14.0977 4.33817C14.1915 4.2444 14.2441 4.11723 14.2441 3.98462C14.2441 3.85201 14.1915 3.72483 14.0977 3.63107C14.0039 3.5373 13.8767 3.48462 13.7441 3.48462ZM7.24414 10.9846C7.24414 11.1172 7.19146 11.2444 7.09769 11.3382C7.00393 11.4319 6.87675 11.4846 6.74414 11.4846C6.61153 11.4846 6.48436 11.4319 6.39059 11.3382C6.29682 11.2444 6.24414 11.1172 6.24414 10.9846V6.98462C6.24414 6.85201 6.29682 6.72483 6.39059 6.63107C6.48436 6.5373 6.61153 6.48462 6.74414 6.48462C6.87675 6.48462 7.00393 6.5373 7.09769 6.63107C7.19146 6.72483 7.24414 6.85201 7.24414 6.98462V10.9846ZM10.2441 10.9846C10.2441 11.1172 10.1915 11.2444 10.0977 11.3382C10.0039 11.4319 9.87675 11.4846 9.74414 11.4846C9.61153 11.4846 9.48435 11.4319 9.39059 11.3382C9.29682 11.2444 9.24414 11.1172 9.24414 10.9846V6.98462C9.24414 6.85201 9.29682 6.72483 9.39059 6.63107C9.48435 6.5373 9.61153 6.48462 9.74414 6.48462C9.87675 6.48462 10.0039 6.5373 10.0977 6.63107C10.1915 6.72483 10.2441 6.85201 10.2441 6.98462V10.9846ZM10.2441 3.48462H6.24414V2.98462C6.24414 2.85201 6.29682 2.72483 6.39059 2.63107C6.48436 2.5373 6.61153 2.48462 6.74414 2.48462H9.74414C9.87675 2.48462 10.0039 2.5373 10.0977 2.63107C10.1915 2.72483 10.2441 2.85201 10.2441 2.98462V3.48462Z" fill="#00214C"/>
</g>
</svg>
