<svg width="21" height="20" viewBox="0 0 21 20" fill="none" xmlns="http://www.w3.org/2000/svg">
<g id="Upload">
<path id="Vector" d="M18.8906 10.625V15.625C18.8906 15.9565 18.7589 16.2745 18.5245 16.5089C18.2901 16.7433 17.9721 16.875 17.6406 16.875H2.64062C2.3091 16.875 1.99116 16.7433 1.75674 16.5089C1.52232 16.2745 1.39063 15.9565 1.39062 15.625V10.625C1.39062 10.2935 1.52232 9.97554 1.75674 9.74112C1.99116 9.5067 2.3091 9.375 2.64062 9.375H6.39062C6.55639 9.375 6.71536 9.44085 6.83257 9.55806C6.94978 9.67527 7.01562 9.83424 7.01562 10C7.01562 10.1658 6.94978 10.3247 6.83257 10.4419C6.71536 10.5592 6.55639 10.625 6.39062 10.625H2.64062V15.625H17.6406V10.625H13.8906C13.7249 10.625 13.5659 10.5592 13.4487 10.4419C13.3315 10.3247 13.2656 10.1658 13.2656 10C13.2656 9.83424 13.3315 9.67527 13.4487 9.55806C13.5659 9.44085 13.7249 9.375 13.8906 9.375H17.6406C17.9721 9.375 18.2901 9.5067 18.5245 9.74112C18.7589 9.97554 18.8906 10.2935 18.8906 10.625ZM6.83281 6.06719L9.51562 3.3836V10C9.51562 10.1658 9.58147 10.3247 9.69868 10.4419C9.81589 10.5592 9.97486 10.625 10.1406 10.625C10.3064 10.625 10.4654 10.5592 10.5826 10.4419C10.6998 10.3247 10.7656 10.1658 10.7656 10V3.3836L13.4484 6.06719C13.5657 6.18447 13.7248 6.25035 13.8906 6.25035C14.0565 6.25035 14.2155 6.18447 14.3328 6.06719C14.4501 5.94992 14.516 5.79086 14.516 5.625C14.516 5.45915 14.4501 5.30009 14.3328 5.18282L10.5828 1.43282C10.5248 1.37471 10.4558 1.32861 10.38 1.29715C10.3041 1.2657 10.2228 1.24951 10.1406 1.24951C10.0585 1.24951 9.97716 1.2657 9.90129 1.29715C9.82541 1.32861 9.75648 1.37471 9.69844 1.43282L5.94844 5.18282C5.83116 5.30009 5.76528 5.45915 5.76528 5.625C5.76528 5.79086 5.83116 5.94992 5.94844 6.06719C6.06571 6.18447 6.22477 6.25035 6.39062 6.25035C6.55648 6.25035 6.71554 6.18447 6.83281 6.06719ZM15.7656 13.125C15.7656 12.9396 15.7106 12.7583 15.6076 12.6042C15.5046 12.45 15.3582 12.3298 15.1869 12.2589C15.0156 12.1879 14.8271 12.1693 14.6452 12.2055C14.4634 12.2417 14.2963 12.331 14.1652 12.4621C14.0341 12.5932 13.9448 12.7603 13.9086 12.9421C13.8725 13.124 13.891 13.3125 13.962 13.4838C14.0329 13.6551 14.1531 13.8015 14.3073 13.9045C14.4614 14.0075 14.6427 14.0625 14.8281 14.0625C15.0768 14.0625 15.3152 13.9637 15.491 13.7879C15.6669 13.6121 15.7656 13.3736 15.7656 13.125Z" fill="#00214C"/>
</g>
</svg>
