<svg width="21" height="21" viewBox="0 0 21 21" fill="none" xmlns="http://www.w3.org/2000/svg">
<g id="UserPlus">
<path id="Vector" d="M20.5 11.125C20.5 11.2907 20.4342 11.4497 20.317 11.5669C20.1998 11.6841 20.0408 11.75 19.875 11.75H18.625V13C18.625 13.1657 18.5592 13.3247 18.442 13.4419C18.3248 13.5591 18.1658 13.625 18 13.625C17.8343 13.625 17.6753 13.5591 17.5581 13.4419C17.4409 13.3247 17.375 13.1657 17.375 13V11.75H16.125C15.9593 11.75 15.8003 11.6841 15.6831 11.5669C15.5659 11.4497 15.5 11.2907 15.5 11.125C15.5 10.9592 15.5659 10.8002 15.6831 10.683C15.8003 10.5658 15.9593 10.5 16.125 10.5H17.375V9.24995C17.375 9.08419 17.4409 8.92522 17.5581 8.80801C17.6753 8.6908 17.8343 8.62495 18 8.62495C18.1658 8.62495 18.3248 8.6908 18.442 8.80801C18.5592 8.92522 18.625 9.08419 18.625 9.24995V10.5H19.875C20.0408 10.5 20.1998 10.5658 20.317 10.683C20.4342 10.8002 20.5 10.9592 20.5 11.125ZM15.9789 15.7226C16.0857 15.8496 16.1375 16.0138 16.1232 16.1791C16.1088 16.3444 16.0294 16.4971 15.9024 16.6039C15.7754 16.7106 15.6112 16.7624 15.4459 16.7481C15.2806 16.7337 15.1278 16.6543 15.0211 16.5273C13.4493 14.6554 11.2883 13.625 8.93754 13.625C6.58676 13.625 4.42582 14.6554 2.85395 16.5273C2.74724 16.6542 2.59449 16.7335 2.42929 16.7478C2.2641 16.7621 2.1 16.7102 1.97309 16.6035C1.84618 16.4968 1.76686 16.344 1.75257 16.1788C1.73829 16.0136 1.79021 15.8495 1.89692 15.7226C3.0641 14.3335 4.51567 13.3468 6.12895 12.8187C5.14918 12.2085 4.39482 11.2957 3.97999 10.2186C3.56516 9.14146 3.51242 7.95852 3.82977 6.84874C4.14711 5.73897 4.81727 4.76273 5.73885 4.06775C6.66042 3.37276 7.78328 2.99683 8.93754 2.99683C10.0918 2.99683 11.2147 3.37276 12.1362 4.06775C13.0578 4.76273 13.728 5.73897 14.0453 6.84874C14.3627 7.95852 14.3099 9.14146 13.8951 10.2186C13.4803 11.2957 12.7259 12.2085 11.7461 12.8187C13.3594 13.3468 14.811 14.3335 15.9789 15.7226ZM8.93754 12.375C9.74103 12.375 10.5265 12.1367 11.1945 11.6903C11.8626 11.2439 12.3833 10.6094 12.6908 9.8671C12.9983 9.12478 13.0787 8.30794 12.922 7.5199C12.7652 6.73185 12.3783 6.00798 11.8102 5.43983C11.242 4.87168 10.5181 4.48476 9.7301 4.32801C8.94205 4.17126 8.12522 4.25171 7.38289 4.55919C6.64057 4.86667 6.00609 5.38737 5.5597 6.05545C5.1133 6.72352 4.87504 7.50896 4.87504 8.31245C4.87628 9.38951 5.30469 10.4221 6.06629 11.1837C6.82789 11.9453 7.86048 12.3737 8.93754 12.375Z" fill="#00214C"/>
</g>
</svg>
