<svg width="21" height="21" viewBox="0 0 21 21" fill="none" xmlns="http://www.w3.org/2000/svg">
<g id="User">
<path id="Vector" d="M18.7887 17.0889C17.5989 15.0318 15.7653 13.5568 13.6254 12.8576C14.6839 12.2275 15.5062 11.2674 15.9662 10.1246C16.4262 8.98191 16.4983 7.71979 16.1716 6.5321C15.8448 5.34441 15.1372 4.29682 14.1574 3.5502C13.1777 2.80359 11.9799 2.39923 10.7481 2.39923C9.51625 2.39923 8.31849 2.80359 7.33872 3.5502C6.35895 4.29682 5.65135 5.34441 5.32459 6.5321C4.99783 7.71979 5.06997 8.98191 5.52994 10.1246C5.98991 11.2674 6.81227 12.2275 7.87073 12.8576C5.73089 13.556 3.89729 15.031 2.70745 17.0889C2.66382 17.16 2.63487 17.2392 2.62233 17.3217C2.60979 17.4042 2.6139 17.4884 2.63442 17.5693C2.65494 17.6502 2.69146 17.7262 2.74182 17.7927C2.79218 17.8593 2.85535 17.9151 2.92763 17.9568C2.9999 17.9986 3.0798 18.0254 3.16261 18.0358C3.24543 18.0461 3.32948 18.0398 3.40981 18.0172C3.49014 17.9945 3.56512 17.956 3.63033 17.9039C3.69554 17.8518 3.74965 17.7872 3.78948 17.7139C5.26136 15.1701 7.86292 13.6514 10.7481 13.6514C13.6332 13.6514 16.2348 15.1701 17.7067 17.7139C17.7465 17.7872 17.8006 17.8518 17.8658 17.9039C17.931 17.956 18.006 17.9945 18.0863 18.0172C18.1667 18.0398 18.2507 18.0461 18.3335 18.0358C18.4164 18.0254 18.4963 17.9986 18.5685 17.9568C18.6408 17.9151 18.704 17.8593 18.7543 17.7927C18.8047 17.7262 18.8412 17.6502 18.8617 17.5693C18.8822 17.4884 18.8864 17.4042 18.8738 17.3217C18.8613 17.2392 18.8323 17.16 18.7887 17.0889ZM6.37308 8.02636C6.37308 7.16106 6.62966 6.3152 7.1104 5.59574C7.59113 4.87627 8.27441 4.31552 9.07384 3.98438C9.87326 3.65325 10.7529 3.56661 11.6016 3.73542C12.4503 3.90423 13.2298 4.32091 13.8417 4.93276C14.4535 5.54462 14.8702 6.32417 15.039 7.17284C15.2078 8.0215 15.1212 8.90117 14.79 9.7006C14.4589 10.5 13.8982 11.1833 13.1787 11.664C12.4592 12.1448 11.6134 12.4014 10.7481 12.4014C9.58813 12.4001 8.47606 11.9388 7.65585 11.1186C6.83565 10.2984 6.37432 9.1863 6.37308 8.02636Z" fill="#00214C"/>
</g>
</svg>
