<svg width="14" height="14" viewBox="0 0 14 14" fill="none" xmlns="http://www.w3.org/2000/svg">
<path fill-rule="evenodd" clip-rule="evenodd" d="M11.9124 2.03652C10.6001 0.724286 8.86184 0 7.00426 0C3.17833 0 0.0681677 3.11016 0.0596467 6.93609C0.0596467 8.16312 0.374923 9.35606 0.988435 10.4041L0 14L3.68107 13.0371C4.69507 13.591 5.83688 13.8807 6.99574 13.8807C10.8217 13.8807 13.9318 10.7705 13.9404 6.93609C13.9489 5.08704 13.2246 3.34875 11.9124 2.03652ZM7.00426 12.7133C5.9647 12.7133 4.9507 12.4321 4.06452 11.9124L3.85149 11.7845L1.67011 12.3554L2.24954 10.2252L2.11321 10.0037C1.53378 9.08338 1.22702 8.02678 1.22702 6.93609C1.22702 3.75776 3.81741 1.16738 6.99574 1.16738C8.53804 1.16738 9.98661 1.77237 11.0773 2.86306C12.168 3.95374 12.7645 5.40231 12.7645 6.94461C12.773 10.1229 10.1826 12.7133 7.00426 12.7133ZM10.1656 8.39318C9.99513 8.30797 9.14303 7.89044 8.98113 7.8308C8.81923 7.77115 8.70846 7.74559 8.58917 7.91601C8.46987 8.08643 8.13755 8.47839 8.04382 8.59769C7.94157 8.71698 7.83932 8.7255 7.6689 8.64029C7.49848 8.55508 6.93609 8.36762 6.27145 7.77967C5.75167 7.31954 5.41083 6.74863 5.30858 6.57821C5.20633 6.40779 5.30006 6.31406 5.38527 6.22033C5.46196 6.14364 5.55569 6.01583 5.64942 5.91357C5.73463 5.81132 5.76872 5.74315 5.81984 5.62386C5.87949 5.50456 5.8454 5.41083 5.8028 5.3171C5.76019 5.23189 5.41083 4.37979 5.26598 4.03043C5.12112 3.68959 4.98478 3.74072 4.87401 3.7322C4.77176 3.72368 4.66099 3.72368 4.54169 3.72368C4.4224 3.72368 4.23494 3.76628 4.08156 3.9367C3.91966 4.10712 3.47657 4.53317 3.47657 5.38527C3.47657 6.23737 4.0986 7.06391 4.18381 7.1832C4.26902 7.3025 5.41083 9.0493 7.14912 9.79915C7.56665 9.97809 7.88192 10.0803 8.13755 10.1656C8.55508 10.2934 8.93001 10.2763 9.22824 10.2337C9.56056 10.1826 10.2508 9.81619 10.3956 9.40718C10.5405 8.99817 10.5405 8.65733 10.4979 8.58064C10.4553 8.521 10.3445 8.47839 10.1656 8.39318Z" fill="#166BEF"/>
</svg>
