<svg width="25" height="25" viewBox="0 0 25 25" fill="none" xmlns="http://www.w3.org/2000/svg">
<g id="Group">
<path id="Vector" fill-rule="evenodd" clip-rule="evenodd" d="M21.2903 3.95651C19.0408 1.70696 16.0609 0.465332 12.8764 0.465332C6.31771 0.465332 0.986 5.79704 0.971392 12.3558C0.971392 14.4592 1.51187 16.5043 2.5636 18.301L0.869141 24.4653L7.17955 22.8147C8.91783 23.7642 10.8752 24.2608 12.8618 24.2608C19.4206 24.2608 24.7523 18.9291 24.7669 12.3558C24.7815 9.18597 23.5399 6.20605 21.2903 3.95651ZM12.8764 22.2596C11.0943 22.2596 9.35605 21.7776 7.83688 20.8865L7.4717 20.6674L3.73219 21.6461L4.7255 17.9942L4.49178 17.6145C3.49848 16.0368 2.97261 14.2255 2.97261 12.3558C2.97261 6.90721 7.41327 2.46655 12.8618 2.46655C15.5058 2.46655 17.989 3.50368 19.8588 5.37343C21.7285 7.24318 22.7511 9.72644 22.7511 12.3704C22.7657 17.819 18.325 22.2596 12.8764 22.2596ZM18.2958 14.8536C18.0037 14.7076 16.5429 13.9918 16.2654 13.8896C15.9878 13.7873 15.7979 13.7435 15.5934 14.0356C15.3889 14.3278 14.8192 14.9997 14.6586 15.2042C14.4833 15.4087 14.308 15.4233 14.0158 15.2773C13.7237 15.1312 12.7596 14.8098 11.6202 13.8019C10.7292 13.0131 10.1449 12.0344 9.96957 11.7423C9.79428 11.4501 9.95496 11.2894 10.101 11.1288C10.2325 10.9973 10.3932 10.7782 10.5539 10.6029C10.6999 10.4276 10.7584 10.3107 10.846 10.1062C10.9483 9.90173 10.8898 9.74105 10.8168 9.58037C10.7438 9.43429 10.1449 7.97355 9.89653 7.37464C9.6482 6.79035 9.41448 6.87799 9.22459 6.86338C9.0493 6.84878 8.8594 6.84878 8.6549 6.84878C8.45039 6.84878 8.12903 6.92181 7.8661 7.21396C7.58856 7.50611 6.82897 8.23648 6.82897 9.69722C6.82897 11.158 7.89531 12.5749 8.04139 12.7794C8.18746 12.9839 10.1449 15.9784 13.1248 17.2639C13.8405 17.5706 14.381 17.7459 14.8192 17.892C15.535 18.1111 16.1777 18.0819 16.689 18.0088C17.2587 17.9212 18.4419 17.2931 18.6902 16.5919C18.9385 15.8908 18.9385 15.3065 18.8655 15.175C18.7924 15.0728 18.6026 14.9997 18.2958 14.8536Z" fill="white"/>
</g>
</svg>
